<svg width="24" height="24" viewBox="0 0 24 24" fill="none" xmlns="http://www.w3.org/2000/svg">
<path d="M12.7246 11.4205H21.7826C21.9275 11.4205 22 11.4205 22 11.2756V10.9858C22 10.9133 22 10.8408 21.8551 10.8408C17.5797 9.6814 14.2464 6.42053 13.1594 2.14517L12.8696 2.00024H12.6522C12.5797 2.00024 12.5072 2.07271 12.5072 2.21764V11.2756C12.5072 11.3481 12.5072 11.4205 12.6522 11.4205H12.7246ZM12.7246 22.0002H13.0145L13.1594 21.8553C14.3188 17.58 17.5797 14.2466 21.8551 13.1597L22 12.9423V12.7249C22 12.6524 21.9275 12.5075 21.7826 12.5075H12.7246L12.5797 12.7249V21.7829C12.5797 21.9278 12.5797 22.0002 12.7246 22.0002ZM11.058 22.0002H11.2754C11.3478 22.0002 11.4203 21.9278 11.4203 21.7829V12.7249C11.4203 12.6524 11.4203 12.5075 11.2754 12.5075H2.21739C2.07246 12.5075 2 12.6524 2 12.7249V13.0147C2 13.0872 2 13.1597 2.14493 13.1597C6.42029 14.2466 9.75362 17.58 10.8406 21.8553L11.058 22.0002ZM2.21739 11.4205H11.2754C11.3478 11.4205 11.4203 11.4205 11.4203 11.2756V2.21764C11.4203 2.07271 11.4203 2.00024 11.2754 2.00024H10.9855C10.913 2.00024 10.8406 2.00024 10.8406 2.14517C9.68116 6.34807 6.34783 9.75387 2.14493 10.8408L2 11.0582V11.2756C2 11.3481 2.07246 11.4205 2.21739 11.4205Z" fill="white"/>
</svg>
