<svg width="24" height="24" viewBox="0 0 24 24" fill="none" xmlns="http://www.w3.org/2000/svg">
<path d="M6.19727 5.09944C6.19699 5.65603 5.97562 6.18972 5.58185 6.58309C5.18809 6.97647 4.65418 7.19731 4.09759 7.19703C3.54099 7.19675 3.00731 6.97538 2.61393 6.58161C2.22056 6.18784 1.99972 5.65394 2 5.09734C2.00028 4.54075 2.22165 4.00706 2.61542 3.61369C3.00919 3.22032 3.54309 2.99948 4.09969 2.99976C4.65628 3.00003 5.18996 3.22141 5.58334 3.61517C5.97671 4.00894 6.19755 4.54285 6.19727 5.09944ZM6.26023 8.75107H2.06296V21.8885H6.26023V8.75107ZM12.8919 8.75107H8.71564V21.8885H12.8499V14.9945C12.8499 11.154 17.8552 10.7972 17.8552 14.9945V21.8885H22V13.5674C22 7.09315 14.5918 7.33449 12.8499 10.5139L12.8919 8.75107Z" fill="white"/>
</svg>
