<svg width="132" height="24" viewBox="0 0 132 24" fill="none" xmlns="http://www.w3.org/2000/svg">
<rect y="6" width="36" height="12" rx="6" fill="url(#paint0_linear_1050_3718)"/>
<path d="M47.46 19L52.58 5H55.46L60.58 19H57.86L56.74 15.76H51.28L50.14 19H47.46ZM51.98 13.76H56.04L54 7.94L51.98 13.76ZM62.4734 19V9.08H64.7534L64.9934 10.94C65.3534 10.3 65.8401 9.79333 66.4534 9.42C67.0801 9.03333 67.8134 8.84 68.6534 8.84V11.54H67.9334C67.3734 11.54 66.8734 11.6267 66.4334 11.8C65.9934 11.9733 65.6468 12.2733 65.3934 12.7C65.1534 13.1267 65.0334 13.72 65.0334 14.48V19H62.4734ZM70.5531 19V9.08H72.8131L73.0331 10.42C73.3531 9.94 73.7731 9.56 74.2931 9.28C74.8265 8.98667 75.4398 8.84 76.1331 8.84C77.6665 8.84 78.7531 9.43333 79.3931 10.62C79.7531 10.0733 80.2331 9.64 80.8331 9.32C81.4465 9 82.1131 8.84 82.8331 8.84C84.1265 8.84 85.1198 9.22667 85.8131 10C86.5065 10.7733 86.8531 11.9067 86.8531 13.4V19H84.2931V13.64C84.2931 12.7867 84.1265 12.1333 83.7931 11.68C83.4731 11.2267 82.9731 11 82.2931 11C81.5998 11 81.0398 11.2533 80.6131 11.76C80.1998 12.2667 79.9931 12.9733 79.9931 13.88V19H77.4331V13.64C77.4331 12.7867 77.2665 12.1333 76.9331 11.68C76.5998 11.2267 76.0865 11 75.3931 11C74.7131 11 74.1598 11.2533 73.7331 11.76C73.3198 12.2667 73.1131 12.9733 73.1131 13.88V19H70.5531ZM93.5336 19.24C92.6536 19.24 91.8803 19.1 91.2136 18.82C90.5469 18.5267 90.0136 18.1267 89.6136 17.62C89.2136 17.1133 88.9736 16.5267 88.8936 15.86H91.4736C91.5536 16.2467 91.7669 16.58 92.1136 16.86C92.4736 17.1267 92.9336 17.26 93.4936 17.26C94.0536 17.26 94.4603 17.1467 94.7136 16.92C94.9803 16.6933 95.1136 16.4333 95.1136 16.14C95.1136 15.7133 94.9269 15.4267 94.5536 15.28C94.1803 15.12 93.6603 14.9667 92.9936 14.82C92.5669 14.7267 92.1336 14.6133 91.6936 14.48C91.2536 14.3467 90.8469 14.18 90.4736 13.98C90.1136 13.7667 89.8203 13.5 89.5936 13.18C89.3669 12.8467 89.2536 12.44 89.2536 11.96C89.2536 11.08 89.6003 10.34 90.2936 9.74C91.0003 9.14 91.9869 8.84 93.2536 8.84C94.4269 8.84 95.3603 9.11333 96.0536 9.66C96.7603 10.2067 97.1803 10.96 97.3136 11.92H94.8936C94.7469 11.1867 94.1936 10.82 93.2336 10.82C92.7536 10.82 92.3803 10.9133 92.1136 11.1C91.8603 11.2867 91.7336 11.52 91.7336 11.8C91.7336 12.0933 91.9269 12.3267 92.3136 12.5C92.7003 12.6733 93.2136 12.8333 93.8536 12.98C94.5469 13.14 95.1803 13.32 95.7536 13.52C96.3403 13.7067 96.8069 13.9933 97.1536 14.38C97.5003 14.7533 97.6736 15.2933 97.6736 16C97.6869 16.6133 97.5269 17.1667 97.1936 17.66C96.8603 18.1533 96.3803 18.54 95.7536 18.82C95.1269 19.1 94.3869 19.24 93.5336 19.24ZM104.199 19C103.159 19 102.326 18.7467 101.699 18.24C101.072 17.7333 100.759 16.8333 100.759 15.54V11.22H99.0589V9.08H100.759L101.059 6.42H103.319V9.08H105.999V11.22H103.319V15.56C103.319 16.04 103.419 16.3733 103.619 16.56C103.832 16.7333 104.192 16.82 104.699 16.82H105.939V19H104.199ZM112.913 19.24C111.913 19.24 111.026 19.0267 110.253 18.6C109.48 18.1733 108.873 17.5733 108.433 16.8C107.993 16.0267 107.773 15.1333 107.773 14.12C107.773 13.0933 107.986 12.18 108.413 11.38C108.853 10.58 109.453 9.96 110.213 9.52C110.986 9.06667 111.893 8.84 112.933 8.84C113.906 8.84 114.766 9.05333 115.513 9.48C116.26 9.90667 116.84 10.4933 117.253 11.24C117.68 11.9733 117.893 12.7933 117.893 13.7C117.893 13.8467 117.886 14 117.873 14.16C117.873 14.32 117.866 14.4867 117.853 14.66H110.313C110.366 15.4333 110.633 16.04 111.113 16.48C111.606 16.92 112.2 17.14 112.893 17.14C113.413 17.14 113.846 17.0267 114.193 16.8C114.553 16.56 114.82 16.2533 114.993 15.88H117.593C117.406 16.5067 117.093 17.08 116.653 17.6C116.226 18.1067 115.693 18.5067 115.053 18.8C114.426 19.0933 113.713 19.24 112.913 19.24ZM112.933 10.92C112.306 10.92 111.753 11.1 111.273 11.46C110.793 11.8067 110.486 12.34 110.353 13.06H115.293C115.253 12.4067 115.013 11.8867 114.573 11.5C114.133 11.1133 113.586 10.92 112.933 10.92ZM120.196 23.4V9.08H122.476L122.756 10.5C123.076 10.06 123.496 9.67333 124.016 9.34C124.549 9.00667 125.236 8.84 126.076 8.84C127.009 8.84 127.843 9.06667 128.576 9.52C129.309 9.97333 129.889 10.5933 130.316 11.38C130.743 12.1667 130.956 13.06 130.956 14.06C130.956 15.06 130.743 15.9533 130.316 16.74C129.889 17.5133 129.309 18.1267 128.576 18.58C127.843 19.02 127.009 19.24 126.076 19.24C125.329 19.24 124.676 19.1 124.116 18.82C123.556 18.54 123.103 18.1467 122.756 17.64V23.4H120.196ZM125.536 17C126.349 17 127.023 16.7267 127.556 16.18C128.089 15.6333 128.356 14.9267 128.356 14.06C128.356 13.1933 128.089 12.48 127.556 11.92C127.023 11.36 126.349 11.08 125.536 11.08C124.709 11.08 124.029 11.36 123.496 11.92C122.976 12.4667 122.716 13.1733 122.716 14.04C122.716 14.9067 122.976 15.62 123.496 16.18C124.029 16.7267 124.709 17 125.536 17Z" fill="url(#paint1_linear_1050_3718)"/>
<defs>
<linearGradient id="paint0_linear_1050_3718" x1="0" y1="18" x2="36" y2="18" gradientUnits="userSpaceOnUse">
<stop stop-color="#71EA9F"/>
<stop offset="1" stop-color="#A16FF6"/>
</linearGradient>
<linearGradient id="paint1_linear_1050_3718" x1="47" y1="24" x2="132" y2="24" gradientUnits="userSpaceOnUse">
<stop stop-color="#71EA9F"/>
<stop offset="1" stop-color="#A16FF6"/>
</linearGradient>
</defs>
</svg>
