<svg width="508" height="426" viewBox="0 0 508 426" fill="none" xmlns="http://www.w3.org/2000/svg">
<g filter="url(#filter0_f_349_8327)">
<path d="M377.86 122.206C386.097 142.527 389.196 164.565 386.882 186.369C384.568 208.173 376.912 229.069 364.593 247.208C352.273 265.346 335.671 280.166 316.256 290.356C296.841 300.545 275.213 305.789 253.287 305.623C231.361 305.457 209.815 299.886 190.556 289.404C171.298 278.922 154.922 263.852 142.878 245.53C130.835 227.207 123.496 206.197 121.512 184.36C119.528 162.524 122.96 140.535 131.504 120.342L205.495 151.648C202.099 159.673 200.735 168.412 201.523 177.091C202.312 185.769 205.229 194.12 210.015 201.402C214.801 208.684 221.31 214.673 228.964 218.839C236.618 223.005 245.181 225.219 253.895 225.285C262.609 225.351 271.205 223.266 278.921 219.217C286.637 215.167 293.235 209.277 298.131 202.068C303.028 194.86 306.07 186.555 306.99 177.889C307.91 169.224 306.678 160.465 303.404 152.389L377.86 122.206Z" fill="url(#paint0_linear_349_8327)" fill-opacity="0.4"/>
</g>
<defs>
<filter id="filter0_f_349_8327" x="0.964844" y="0.342102" width="506.66" height="425.285" filterUnits="userSpaceOnUse" color-interpolation-filters="sRGB">
<feFlood flood-opacity="0" result="BackgroundImageFix"/>
<feBlend mode="normal" in="SourceGraphic" in2="BackgroundImageFix" result="shape"/>
<feGaussianBlur stdDeviation="60" result="effect1_foregroundBlur_349_8327"/>
</filter>
<linearGradient id="paint0_linear_349_8327" x1="348.575" y1="335.592" x2="417.592" y2="78.0173" gradientUnits="userSpaceOnUse">
<stop stop-color="#71EA9F"/>
<stop offset="1" stop-color="#A16FF6"/>
</linearGradient>
</defs>
</svg>
