<svg width="500" height="87" viewBox="0 0 500 87" fill="none" xmlns="http://www.w3.org/2000/svg">
<path d="M409.873 93.7216C409.873 119.361 392.819 142.655 365.072 159.566C337.335 176.471 298.984 186.943 256.596 186.943C214.209 186.943 175.858 176.471 148.121 159.566C120.374 142.655 103.32 119.361 103.32 93.7216C103.32 68.0818 120.374 44.7878 148.121 27.8774C175.858 10.9723 214.209 0.5 256.596 0.5C298.984 0.5 337.335 10.9723 365.072 27.8774C392.819 44.7878 409.873 68.0818 409.873 93.7216Z" fill="url(#paint0_radial_882_10015)" stroke="url(#paint1_linear_882_10015)"/>
<path d="M499.5 95.0864C499.5 105.402 492.661 115.325 480.061 124.432C467.472 133.532 449.225 141.747 426.631 148.655C381.449 162.468 319 171.02 250 171.02C181 171.02 118.551 162.468 73.3695 148.655C50.7755 141.747 32.5276 133.532 19.9391 124.432C7.33929 115.325 0.5 105.402 0.5 95.0864C0.5 84.7713 7.33929 74.848 19.9391 65.7404C32.5276 56.6411 50.7755 48.4259 73.3695 41.5182C118.551 27.7047 181 19.1533 250 19.1533C319 19.1533 381.449 27.7047 426.631 41.5182C449.225 48.4259 467.472 56.6411 480.061 65.7404C492.661 74.848 499.5 84.7713 499.5 95.0864Z" stroke="url(#paint2_linear_882_10015)"/>
<path d="M469.017 95.0864C469.017 105.433 463.071 115.359 452.161 124.454C441.253 133.546 425.44 141.756 405.855 148.661C366.691 162.47 312.553 171.02 252.729 171.02C192.906 171.02 138.768 162.47 99.6034 148.661C80.0188 141.756 64.2054 133.546 53.2978 124.454C42.3874 115.359 36.4414 105.433 36.4414 95.0864C36.4414 84.7402 42.3874 74.8139 53.2978 65.7193C64.2054 56.6271 80.0188 48.4166 99.6034 41.5116C138.768 27.7033 192.906 19.1533 252.729 19.1533C312.553 19.1533 366.691 27.7033 405.855 41.5116C425.44 48.4166 441.253 56.6271 452.161 65.7193C463.071 74.8139 469.017 84.7402 469.017 95.0864Z" stroke="url(#paint3_linear_882_10015)"/>
<path d="M455.368 95.0864C455.368 105.452 449.949 115.382 440.031 124.469C430.112 133.557 415.733 141.764 397.921 148.667C362.301 162.471 313.059 171.02 258.643 171.02C204.226 171.02 154.984 162.471 119.364 148.667C101.553 141.764 87.1731 133.557 77.2546 124.469C67.3366 115.382 61.918 105.452 61.918 95.0864C61.918 84.7211 67.3366 74.7914 77.2546 65.7039C87.1731 56.6161 101.553 48.409 119.364 41.5063C154.984 27.7021 204.226 19.1533 258.643 19.1533C313.059 19.1533 362.301 27.7021 397.921 41.5063C415.733 48.409 430.112 56.6161 440.031 65.7039C449.949 74.7914 455.368 84.7211 455.368 95.0864Z" stroke="url(#paint4_linear_882_10015)"/>
<defs>
<radialGradient id="paint0_radial_882_10015" cx="0" cy="0" r="1" gradientUnits="userSpaceOnUse" gradientTransform="translate(275.889 93.7216) rotate(101.632) scale(95.6867 157.013)">
<stop stop-color="#71EA9F"/>
<stop offset="1" stop-color="#020202" stop-opacity="0"/>
</radialGradient>
<linearGradient id="paint1_linear_882_10015" x1="270.782" y1="12.4962" x2="278.458" y2="222.091" gradientUnits="userSpaceOnUse">
<stop stop-color="#71EA9F" stop-opacity="0"/>
<stop offset="0.546038" stop-color="#71EA9F"/>
<stop offset="1" stop-color="#A16FF6"/>
</linearGradient>
<linearGradient id="paint2_linear_882_10015" x1="144.373" y1="29.3076" x2="184.37" y2="220.893" gradientUnits="userSpaceOnUse">
<stop stop-color="#71EA9F" stop-opacity="0"/>
<stop offset="0.546038" stop-color="#71EA9F"/>
<stop offset="1" stop-color="#A16FF6"/>
</linearGradient>
<linearGradient id="paint3_linear_882_10015" x1="224.638" y1="8.99263" x2="208.439" y2="193.173" gradientUnits="userSpaceOnUse">
<stop stop-color="#71EA9F" stop-opacity="0"/>
<stop offset="0.546038" stop-color="#71EA9F" stop-opacity="0.34"/>
<stop offset="1" stop-color="#A16FF6" stop-opacity="0.42"/>
</linearGradient>
<linearGradient id="paint4_linear_882_10015" x1="278.791" y1="21.4947" x2="260.088" y2="103.36" gradientUnits="userSpaceOnUse">
<stop stop-color="#71EA9F" stop-opacity="0"/>
<stop offset="0.546038" stop-color="#71EA9F" stop-opacity="0.2"/>
<stop offset="1" stop-color="#A16FF6" stop-opacity="0.32"/>
</linearGradient>
</defs>
</svg>
