<svg width="1099" height="208" viewBox="0 0 1099 208" fill="none" xmlns="http://www.w3.org/2000/svg">
<path d="M901.5 217.502C901.5 277.337 863.811 331.576 802.732 370.881C741.658 410.182 657.255 434.507 564 434.507C470.745 434.507 386.342 410.182 325.268 370.881C264.189 331.576 226.5 277.337 226.5 217.502C226.5 157.668 264.189 103.429 325.268 64.1241C386.342 24.8228 470.745 0.498047 564 0.498047C657.255 0.498047 741.658 24.8228 802.732 64.1241C863.811 103.429 901.5 157.668 901.5 217.502Z" fill="url(#paint0_radial_640_438)" stroke="url(#paint1_linear_640_438)"/>
<path d="M1098.5 220.67C1098.5 244.935 1083.27 268.138 1055.51 289.317C1027.77 310.491 987.593 329.581 937.902 345.622C838.523 377.702 701.203 397.552 549.5 397.552C397.797 397.552 260.476 377.702 161.098 345.622C111.407 329.581 71.2294 310.491 43.4858 289.317C15.7346 268.138 0.5 244.935 0.5 220.67C0.5 196.404 15.7346 173.202 43.4858 152.022C71.2294 130.848 111.407 111.758 161.098 95.7175C260.476 63.6376 397.797 43.7876 549.5 43.7876C701.203 43.7876 838.523 63.6376 937.902 95.7175C987.593 111.758 1027.77 130.848 1055.51 152.022C1083.27 173.202 1098.5 196.404 1098.5 220.67Z" stroke="url(#paint2_linear_640_438)"/>
<path d="M1031.5 220.67C1031.5 244.965 1018.27 268.172 994.224 289.34C970.174 310.507 935.344 329.592 892.262 345.629C806.101 377.704 687.038 397.552 555.5 397.552C423.962 397.552 304.899 377.704 218.738 345.629C175.656 329.592 140.826 310.507 116.776 289.34C92.7252 268.172 79.5 244.965 79.5 220.67C79.5 196.374 92.7252 173.168 116.776 152C140.826 130.833 175.656 111.748 218.738 95.7102C304.899 63.636 423.962 43.7876 555.5 43.7876C687.038 43.7876 806.101 63.636 892.262 95.7102C935.344 111.748 970.174 130.833 994.224 152C1018.27 173.168 1031.5 196.374 1031.5 220.67Z" stroke="url(#paint3_linear_640_438)"/>
<path d="M1001.5 220.67C1001.5 244.984 989.46 268.194 967.586 289.356C945.71 310.518 914.03 329.6 874.841 345.635C796.467 377.705 688.159 397.552 568.5 397.552C448.841 397.552 340.533 377.705 262.159 345.635C222.97 329.6 191.29 310.518 169.414 289.356C147.54 268.194 135.5 244.984 135.5 220.67C135.5 196.356 147.54 173.145 169.414 151.984C191.29 130.821 222.97 111.74 262.159 95.7044C340.533 63.6347 448.841 43.7876 568.5 43.7876C688.159 43.7876 796.467 63.6347 874.841 95.7044C914.03 111.74 945.71 130.821 967.586 151.984C989.46 173.145 1001.5 196.356 1001.5 220.67Z" stroke="url(#paint4_linear_640_438)"/>
<defs>
<radialGradient id="paint0_radial_640_438" cx="0" cy="0" r="1" gradientUnits="userSpaceOnUse" gradientTransform="translate(606.406 217.502) rotate(101.032) scale(221.6 345.84)">
<stop stop-color="#71EA9F" stop-opacity="0.4"/>
<stop offset="1" stop-color="#020202" stop-opacity="0"/>
</radialGradient>
<linearGradient id="paint1_linear_640_438" x1="595.181" y1="28.9986" x2="613.986" y2="515.341" gradientUnits="userSpaceOnUse">
<stop stop-color="#71EA9F" stop-opacity="0"/>
<stop offset="0.546038" stop-color="#71EA9F"/>
<stop offset="1" stop-color="#A16FF6"/>
</linearGradient>
<linearGradient id="paint2_linear_640_438" x1="317.331" y1="68.0136" x2="414.872" y2="510.514" gradientUnits="userSpaceOnUse">
<stop stop-color="#71EA9F" stop-opacity="0"/>
<stop offset="0.546038" stop-color="#71EA9F"/>
<stop offset="1" stop-color="#A16FF6"/>
</linearGradient>
<linearGradient id="paint3_linear_640_438" x1="493.755" y1="20.8675" x2="454.098" y2="447.927" gradientUnits="userSpaceOnUse">
<stop stop-color="#71EA9F" stop-opacity="0"/>
<stop offset="0.546038" stop-color="#71EA9F" stop-opacity="0.34"/>
<stop offset="1" stop-color="#A16FF6" stop-opacity="0.42"/>
</linearGradient>
<linearGradient id="paint4_linear_640_438" x1="612.786" y1="49.8817" x2="567.216" y2="238.794" gradientUnits="userSpaceOnUse">
<stop stop-color="#71EA9F" stop-opacity="0"/>
<stop offset="0.546038" stop-color="#71EA9F" stop-opacity="0.2"/>
<stop offset="1" stop-color="#A16FF6" stop-opacity="0.32"/>
</linearGradient>
</defs>
</svg>
