<svg width="391" height="87" viewBox="0 0 391 87" fill="none" xmlns="http://www.w3.org/2000/svg">
<path d="M355.873 93.7216C355.873 119.361 338.819 142.655 311.072 159.566C283.335 176.471 244.984 186.943 202.596 186.943C160.209 186.943 121.858 176.471 94.1205 159.566C66.3743 142.655 49.3203 119.361 49.3203 93.7216C49.3203 68.0818 66.3743 44.7878 94.1205 27.8774C121.858 10.9723 160.209 0.5 202.596 0.5C244.984 0.5 283.335 10.9723 311.072 27.8774C338.819 44.7878 355.873 68.0818 355.873 93.7216Z" fill="url(#paint0_radial_882_11502)" stroke="url(#paint1_linear_882_11502)"/>
<path d="M445.5 95.0864C445.5 105.402 438.661 115.325 426.061 124.432C413.472 133.532 395.225 141.747 372.631 148.655C327.449 162.468 265 171.02 196 171.02C127 171.02 64.5513 162.468 19.3695 148.655C-3.22452 141.747 -21.4724 133.532 -34.0609 124.432C-46.6607 115.325 -53.5 105.402 -53.5 95.0864C-53.5 84.7713 -46.6607 74.848 -34.0609 65.7404C-21.4724 56.6411 -3.22452 48.4259 19.3695 41.5182C64.5513 27.7047 127 19.1533 196 19.1533C265 19.1533 327.449 27.7047 372.631 41.5182C395.225 48.4259 413.472 56.6411 426.061 65.7404C438.661 74.848 445.5 84.7713 445.5 95.0864Z" stroke="url(#paint2_linear_882_11502)"/>
<path d="M415.017 95.0864C415.017 105.433 409.071 115.359 398.161 124.454C387.253 133.546 371.44 141.756 351.855 148.661C312.691 162.47 258.553 171.02 198.729 171.02C138.906 171.02 84.7681 162.47 45.6034 148.661C26.0188 141.756 10.2054 133.546 -0.702171 124.454C-11.6126 115.359 -17.5586 105.433 -17.5586 95.0864C-17.5586 84.7402 -11.6126 74.8139 -0.702171 65.7193C10.2054 56.6271 26.0188 48.4166 45.6034 41.5116C84.7681 27.7033 138.906 19.1533 198.729 19.1533C258.553 19.1533 312.691 27.7033 351.855 41.5116C371.44 48.4166 387.253 56.6271 398.161 65.7193C409.071 74.8139 415.017 84.7402 415.017 95.0864Z" stroke="url(#paint3_linear_882_11502)"/>
<path d="M401.368 95.0864C401.368 105.452 395.949 115.382 386.031 124.469C376.112 133.557 361.733 141.764 343.921 148.667C308.301 162.471 259.059 171.02 204.643 171.02C150.226 171.02 100.984 162.471 65.3644 148.667C47.553 141.764 33.1731 133.557 23.2546 124.469C13.3366 115.382 7.91797 105.452 7.91797 95.0864C7.91797 84.7211 13.3366 74.7914 23.2546 65.7039C33.1731 56.6161 47.553 48.409 65.3644 41.5063C100.984 27.7021 150.226 19.1533 204.643 19.1533C259.059 19.1533 308.301 27.7021 343.921 41.5063C361.733 48.409 376.112 56.6161 386.031 65.7039C395.949 74.7914 401.368 84.7211 401.368 95.0864Z" stroke="url(#paint4_linear_882_11502)"/>
<defs>
<radialGradient id="paint0_radial_882_11502" cx="0" cy="0" r="1" gradientUnits="userSpaceOnUse" gradientTransform="translate(221.889 93.7216) rotate(101.632) scale(95.6867 157.013)">
<stop stop-color="#71EA9F"/>
<stop offset="1" stop-color="#020202" stop-opacity="0"/>
</radialGradient>
<linearGradient id="paint1_linear_882_11502" x1="216.782" y1="12.4962" x2="224.458" y2="222.091" gradientUnits="userSpaceOnUse">
<stop stop-color="#71EA9F" stop-opacity="0"/>
<stop offset="0.546038" stop-color="#71EA9F"/>
<stop offset="1" stop-color="#A16FF6"/>
</linearGradient>
<linearGradient id="paint2_linear_882_11502" x1="90.3727" y1="29.3076" x2="130.37" y2="220.893" gradientUnits="userSpaceOnUse">
<stop stop-color="#71EA9F" stop-opacity="0"/>
<stop offset="0.546038" stop-color="#71EA9F"/>
<stop offset="1" stop-color="#A16FF6"/>
</linearGradient>
<linearGradient id="paint3_linear_882_11502" x1="170.638" y1="8.99263" x2="154.439" y2="193.173" gradientUnits="userSpaceOnUse">
<stop stop-color="#71EA9F" stop-opacity="0"/>
<stop offset="0.546038" stop-color="#71EA9F" stop-opacity="0.34"/>
<stop offset="1" stop-color="#A16FF6" stop-opacity="0.42"/>
</linearGradient>
<linearGradient id="paint4_linear_882_11502" x1="224.791" y1="21.4947" x2="206.088" y2="103.36" gradientUnits="userSpaceOnUse">
<stop stop-color="#71EA9F" stop-opacity="0"/>
<stop offset="0.546038" stop-color="#71EA9F" stop-opacity="0.2"/>
<stop offset="1" stop-color="#A16FF6" stop-opacity="0.32"/>
</linearGradient>
</defs>
</svg>
