<svg width="24" height="24" viewBox="0 0 24 24" fill="none" xmlns="http://www.w3.org/2000/svg">
<path d="M18.297 6.35266C17.131 6.37317 16.0076 6.79454 15.1157 7.54591C14.2238 8.29729 13.6179 9.33284 13.3997 10.4784C12.3048 8.77664 11.4471 6.93341 10.8505 4.99976H8.32355V11.7084C8.32355 12.3429 8.07146 12.9515 7.62274 13.4003C7.17401 13.849 6.56541 14.1011 5.93082 14.1011C5.29623 14.1011 4.68762 13.849 4.2389 13.4003C3.79018 12.9515 3.53809 12.3429 3.53809 11.7084V4.99976L1 5.05566V11.7643C1.00741 13.069 1.53284 14.3174 2.46069 15.2348C3.38855 16.1521 4.64282 16.6634 5.94759 16.6559C7.25236 16.6485 8.50074 16.1231 9.41811 15.1952C10.3355 14.2674 10.8467 13.0131 10.8393 11.7084V10.5903C11.3757 11.6425 11.9925 12.6517 12.6841 13.6091L11.1412 20.9998H13.7352L14.8533 15.6217C15.8895 16.2876 17.0989 16.6337 18.3305 16.6168C19.6857 16.6168 20.9854 16.0785 21.9437 15.1202C22.9019 14.1619 23.4403 12.8623 23.4403 11.5071C23.4403 10.1519 22.9019 8.85224 21.9437 7.89398C20.9854 6.93572 19.6857 6.39738 18.3305 6.39738L18.297 6.35266ZM18.297 13.9893C17.2464 13.9553 16.2395 13.5605 15.4458 12.8712L15.703 11.8537V11.7978C15.8819 10.6797 16.441 8.89074 18.3305 8.89074C18.6618 8.88779 18.9905 8.95032 19.2976 9.07472C19.6046 9.19913 19.8841 9.38297 20.1199 9.61569C20.3558 9.8484 20.5433 10.1254 20.6718 10.4308C20.8003 10.7362 20.8672 11.064 20.8686 11.3953C20.8447 12.0661 20.5712 12.7038 20.1017 13.1836C19.6323 13.6634 19.0007 13.9507 18.3305 13.9893H18.297Z" fill="white"/>
</svg>
