<svg width="48" height="48" viewBox="0 0 48 48" fill="none" xmlns="http://www.w3.org/2000/svg">
<g clip-path="url(#clip0_625_4719)">
<g filter="url(#filter0_f_625_4719)">
<path d="M48 24C48 37.2548 37.2548 48 24 48C10.7452 48 0 37.2548 0 24C0 10.7452 10.7452 0 24 0C37.2548 0 48 10.7452 48 24ZM3.91727 24C3.91727 35.0914 12.9086 44.0827 24 44.0827C35.0914 44.0827 44.0827 35.0914 44.0827 24C44.0827 12.9086 35.0914 3.91727 24 3.91727C12.9086 3.91727 3.91727 12.9086 3.91727 24Z" fill="url(#paint0_linear_625_4719)"/>
</g>
<path d="M16 24C16 21.8783 16.8429 19.8434 18.3431 18.3431C19.8434 16.8429 21.8783 16 24 16C26.1217 16 28.1566 16.8429 29.6569 18.3431C31.1571 19.8434 32 21.8783 32 24V29.09C32 29.938 32 30.36 31.874 30.699C31.7738 30.9676 31.617 31.2116 31.4143 31.4143C31.2116 31.617 30.9676 31.7738 30.699 31.874C30.36 32 29.937 32 29.09 32H24C21.8783 32 19.8434 31.1571 18.3431 29.6569C16.8429 28.1566 16 26.1217 16 24Z" stroke="url(#paint1_linear_625_4719)"/>
<path d="M21 23H27M24 27H27" stroke="url(#paint2_linear_625_4719)" stroke-linecap="round" stroke-linejoin="round"/>
</g>
<rect x="0.5" y="0.5" width="47" height="47" rx="23.5" stroke="white" stroke-opacity="0.12"/>
<defs>
<filter id="filter0_f_625_4719" x="-10" y="-10" width="68" height="68" filterUnits="userSpaceOnUse" color-interpolation-filters="sRGB">
<feFlood flood-opacity="0" result="BackgroundImageFix"/>
<feBlend mode="normal" in="SourceGraphic" in2="BackgroundImageFix" result="shape"/>
<feGaussianBlur stdDeviation="5" result="effect1_foregroundBlur_625_4719"/>
</filter>
<linearGradient id="paint0_linear_625_4719" x1="23" y1="48" x2="23" y2="-2.49022e-08" gradientUnits="userSpaceOnUse">
<stop stop-color="#71EA9F" stop-opacity="0.6"/>
<stop offset="1" stop-color="#521874" stop-opacity="0.6"/>
</linearGradient>
<linearGradient id="paint1_linear_625_4719" x1="16" y1="32" x2="32" y2="32" gradientUnits="userSpaceOnUse">
<stop stop-color="#71EA9F"/>
<stop offset="1" stop-color="#A16FF6"/>
</linearGradient>
<linearGradient id="paint2_linear_625_4719" x1="21" y1="27" x2="27" y2="27" gradientUnits="userSpaceOnUse">
<stop stop-color="#71EA9F"/>
<stop offset="1" stop-color="#A16FF6"/>
</linearGradient>
<clipPath id="clip0_625_4719">
<rect width="48" height="48" rx="24" fill="white"/>
</clipPath>
</defs>
</svg>
