<svg width="48" height="48" viewBox="0 0 48 48" fill="none" xmlns="http://www.w3.org/2000/svg">
<g clip-path="url(#clip0_625_3015)">
<g filter="url(#filter0_f_625_3015)">
<path d="M48 24C48 37.2548 37.2548 48 24 48C10.7452 48 0 37.2548 0 24C0 10.7452 10.7452 0 24 0C37.2548 0 48 10.7452 48 24ZM3.91727 24C3.91727 35.0914 12.9086 44.0827 24 44.0827C35.0914 44.0827 44.0827 35.0914 44.0827 24C44.0827 12.9086 35.0914 3.91727 24 3.91727C12.9086 3.91727 3.91727 12.9086 3.91727 24Z" fill="url(#paint0_linear_625_3015)"/>
</g>
<path d="M15.4999 32.4999C16.3299 33.3299 17.6699 33.3299 18.4999 32.4999L31.4999 19.4999C32.3299 18.6699 32.3299 17.3299 31.4999 16.4999C30.6699 15.6699 29.3299 15.6699 28.4999 16.4999L15.4999 29.4999C14.6699 30.3299 14.6699 31.6699 15.4999 32.4999Z" stroke="url(#paint1_linear_625_3015)" stroke-width="1.5" stroke-linecap="round" stroke-linejoin="round"/>
<path d="M30.01 20.99L27.01 17.99" stroke="url(#paint2_linear_625_3015)" stroke-width="1.5" stroke-linecap="round" stroke-linejoin="round"/>
<path d="M20.5 14.44L22 14L21.56 15.5L22 17L20.5 16.56L19 17L19.44 15.5L19 14L20.5 14.44Z" stroke="url(#paint3_linear_625_3015)" stroke-linecap="round" stroke-linejoin="round"/>
<path d="M16.5 20.44L18 20L17.56 21.5L18 23L16.5 22.56L15 23L15.44 21.5L15 20L16.5 20.44Z" stroke="url(#paint4_linear_625_3015)" stroke-linecap="round" stroke-linejoin="round"/>
<path d="M31.5 25.44L33 25L32.56 26.5L33 28L31.5 27.56L30 28L30.44 26.5L30 25L31.5 25.44Z" stroke="url(#paint5_linear_625_3015)" stroke-linecap="round" stroke-linejoin="round"/>
</g>
<rect x="0.5" y="0.5" width="47" height="47" rx="23.5" stroke="white" stroke-opacity="0.12"/>
<defs>
<filter id="filter0_f_625_3015" x="-10" y="-10" width="68" height="68" filterUnits="userSpaceOnUse" color-interpolation-filters="sRGB">
<feFlood flood-opacity="0" result="BackgroundImageFix"/>
<feBlend mode="normal" in="SourceGraphic" in2="BackgroundImageFix" result="shape"/>
<feGaussianBlur stdDeviation="5" result="effect1_foregroundBlur_625_3015"/>
</filter>
<linearGradient id="paint0_linear_625_3015" x1="23" y1="48" x2="23" y2="-2.49022e-08" gradientUnits="userSpaceOnUse">
<stop stop-color="#71EA9F" stop-opacity="0.6"/>
<stop offset="1" stop-color="#521874" stop-opacity="0.6"/>
</linearGradient>
<linearGradient id="paint1_linear_625_3015" x1="14.8774" y1="33.1224" x2="32.1224" y2="33.1224" gradientUnits="userSpaceOnUse">
<stop stop-color="#71EA9F"/>
<stop offset="1" stop-color="#A16FF6"/>
</linearGradient>
<linearGradient id="paint2_linear_625_3015" x1="27.01" y1="20.99" x2="30.01" y2="20.99" gradientUnits="userSpaceOnUse">
<stop stop-color="#71EA9F"/>
<stop offset="1" stop-color="#A16FF6"/>
</linearGradient>
<linearGradient id="paint3_linear_625_3015" x1="19" y1="17" x2="22" y2="17" gradientUnits="userSpaceOnUse">
<stop stop-color="#71EA9F"/>
<stop offset="1" stop-color="#A16FF6"/>
</linearGradient>
<linearGradient id="paint4_linear_625_3015" x1="15" y1="23" x2="18" y2="23" gradientUnits="userSpaceOnUse">
<stop stop-color="#71EA9F"/>
<stop offset="1" stop-color="#A16FF6"/>
</linearGradient>
<linearGradient id="paint5_linear_625_3015" x1="30" y1="28" x2="33" y2="28" gradientUnits="userSpaceOnUse">
<stop stop-color="#71EA9F"/>
<stop offset="1" stop-color="#A16FF6"/>
</linearGradient>
<clipPath id="clip0_625_3015">
<rect width="48" height="48" rx="24" fill="white"/>
</clipPath>
</defs>
</svg>
