<svg width="48" height="48" viewBox="0 0 48 48" fill="none" xmlns="http://www.w3.org/2000/svg">
<g clip-path="url(#clip0_625_3101)">
<g filter="url(#filter0_f_625_3101)">
<path d="M48 24C48 37.2548 37.2548 48 24 48C10.7452 48 0 37.2548 0 24C0 10.7452 10.7452 0 24 0C37.2548 0 48 10.7452 48 24ZM3.91727 24C3.91727 35.0914 12.9086 44.0827 24 44.0827C35.0914 44.0827 44.0827 35.0914 44.0827 24C44.0827 12.9086 35.0914 3.91727 24 3.91727C12.9086 3.91727 3.91727 12.9086 3.91727 24Z" fill="url(#paint0_linear_625_3101)"/>
</g>
<path d="M24.0001 19.8899L22.9301 21.7499C22.6901 22.1599 22.8901 22.4999 23.3601 22.4999H24.6301C25.1101 22.4999 25.3001 22.8399 25.0601 23.2499L24.0001 25.1099" stroke="url(#paint1_linear_625_3101)" stroke-width="1.5" stroke-linecap="round" stroke-linejoin="round"/>
<path d="M20.3 30.0399V28.8799C18 27.4899 16.11 24.7799 16.11 21.8999C16.11 16.9499 20.66 13.0699 25.8 14.1899C28.06 14.6899 30.04 16.1899 31.07 18.2599C33.16 22.4599 30.96 26.9199 27.73 28.8699V30.0299C27.73 30.3199 27.84 30.9899 26.77 30.9899H21.26C20.16 30.9999 20.3 30.5699 20.3 30.0399Z" stroke="url(#paint2_linear_625_3101)" stroke-width="1.5" stroke-linecap="round" stroke-linejoin="round"/>
<path d="M20.5 34C22.79 33.35 25.21 33.35 27.5 34" stroke="url(#paint3_linear_625_3101)" stroke-width="1.5" stroke-linecap="round" stroke-linejoin="round"/>
</g>
<rect x="0.5" y="0.5" width="47" height="47" rx="23.5" stroke="white" stroke-opacity="0.12"/>
<defs>
<filter id="filter0_f_625_3101" x="-10" y="-10" width="68" height="68" filterUnits="userSpaceOnUse" color-interpolation-filters="sRGB">
<feFlood flood-opacity="0" result="BackgroundImageFix"/>
<feBlend mode="normal" in="SourceGraphic" in2="BackgroundImageFix" result="shape"/>
<feGaussianBlur stdDeviation="5" result="effect1_foregroundBlur_625_3101"/>
</filter>
<linearGradient id="paint0_linear_625_3101" x1="23" y1="48" x2="23" y2="-2.49022e-08" gradientUnits="userSpaceOnUse">
<stop stop-color="#71EA9F" stop-opacity="0.6"/>
<stop offset="1" stop-color="#521874" stop-opacity="0.6"/>
</linearGradient>
<linearGradient id="paint1_linear_625_3101" x1="22.8281" y1="25.1099" x2="25.1638" y2="25.1099" gradientUnits="userSpaceOnUse">
<stop stop-color="#71EA9F"/>
<stop offset="1" stop-color="#A16FF6"/>
</linearGradient>
<linearGradient id="paint2_linear_625_3101" x1="16.11" y1="30.9901" x2="31.8889" y2="30.9901" gradientUnits="userSpaceOnUse">
<stop stop-color="#71EA9F"/>
<stop offset="1" stop-color="#A16FF6"/>
</linearGradient>
<linearGradient id="paint3_linear_625_3101" x1="20.5" y1="34" x2="27.5" y2="34" gradientUnits="userSpaceOnUse">
<stop stop-color="#71EA9F"/>
<stop offset="1" stop-color="#A16FF6"/>
</linearGradient>
<clipPath id="clip0_625_3101">
<rect width="48" height="48" rx="24" fill="white"/>
</clipPath>
</defs>
</svg>
