<svg width="48" height="48" viewBox="0 0 48 48" fill="none" xmlns="http://www.w3.org/2000/svg">
<g clip-path="url(#clip0_625_1473)">
<g filter="url(#filter0_f_625_1473)">
<path d="M48 24C48 37.2548 37.2548 48 24 48C10.7452 48 0 37.2548 0 24C0 10.7452 10.7452 0 24 0C37.2548 0 48 10.7452 48 24ZM3.91727 24C3.91727 35.0914 12.9086 44.0827 24 44.0827C35.0914 44.0827 44.0827 35.0914 44.0827 24C44.0827 12.9086 35.0914 3.91727 24 3.91727C12.9086 3.91727 3.91727 12.9086 3.91727 24Z" fill="url(#paint0_linear_625_1473)"/>
</g>
<path d="M20 14V17" stroke="url(#paint1_linear_625_1473)" stroke-width="1.5" stroke-miterlimit="10" stroke-linecap="round" stroke-linejoin="round"/>
<path d="M28 14V17" stroke="url(#paint2_linear_625_1473)" stroke-width="1.5" stroke-miterlimit="10" stroke-linecap="round" stroke-linejoin="round"/>
<path d="M33 20.5V25.63C32.11 24.92 30.98 24.5 29.75 24.5C28.52 24.5 27.37 24.93 26.47 25.66C25.26 26.61 24.5 28.1 24.5 29.75C24.5 30.73 24.78 31.67 25.26 32.45C25.63 33.06 26.11 33.59 26.68 34H20C16.5 34 15 32 15 29V20.5C15 17.5 16.5 15.5 20 15.5H28C31.5 15.5 33 17.5 33 20.5Z" stroke="url(#paint3_linear_625_1473)" stroke-width="1.5" stroke-miterlimit="10" stroke-linecap="round" stroke-linejoin="round"/>
<path d="M19 23H25" stroke="url(#paint4_linear_625_1473)" stroke-width="1.5" stroke-miterlimit="10" stroke-linecap="round" stroke-linejoin="round"/>
<path d="M19 28H21.62" stroke="url(#paint5_linear_625_1473)" stroke-width="1.5" stroke-miterlimit="10" stroke-linecap="round" stroke-linejoin="round"/>
<path d="M35 29.75C35 30.73 34.72 31.67 34.24 32.45C33.96 32.93 33.61 33.35 33.2 33.69C32.28 34.51 31.08 35 29.75 35C28.6 35 27.54 34.63 26.68 34C26.11 33.59 25.63 33.06 25.26 32.45C24.78 31.67 24.5 30.73 24.5 29.75C24.5 28.1 25.26 26.61 26.47 25.66C27.37 24.93 28.52 24.5 29.75 24.5C30.98 24.5 32.11 24.92 33 25.63C34.22 26.59 35 28.08 35 29.75Z" stroke="url(#paint6_linear_625_1473)" stroke-width="1.5" stroke-miterlimit="10" stroke-linecap="round" stroke-linejoin="round"/>
<path d="M29.75 32.25C29.75 30.87 30.87 29.75 32.25 29.75C30.87 29.75 29.75 28.63 29.75 27.25C29.75 28.63 28.63 29.75 27.25 29.75C28.63 29.75 29.75 30.87 29.75 32.25Z" stroke="url(#paint7_linear_625_1473)" stroke-width="1.5" stroke-linecap="round" stroke-linejoin="round"/>
</g>
<rect x="0.5" y="0.5" width="47" height="47" rx="23.5" stroke="white" stroke-opacity="0.12"/>
<defs>
<filter id="filter0_f_625_1473" x="-10" y="-10" width="68" height="68" filterUnits="userSpaceOnUse" color-interpolation-filters="sRGB">
<feFlood flood-opacity="0" result="BackgroundImageFix"/>
<feBlend mode="normal" in="SourceGraphic" in2="BackgroundImageFix" result="shape"/>
<feGaussianBlur stdDeviation="5" result="effect1_foregroundBlur_625_1473"/>
</filter>
<linearGradient id="paint0_linear_625_1473" x1="23" y1="48" x2="23" y2="-2.49022e-08" gradientUnits="userSpaceOnUse">
<stop stop-color="#71EA9F" stop-opacity="0.6"/>
<stop offset="1" stop-color="#521874" stop-opacity="0.6"/>
</linearGradient>
<linearGradient id="paint1_linear_625_1473" x1="20" y1="17" x2="21" y2="17" gradientUnits="userSpaceOnUse">
<stop stop-color="#71EA9F"/>
<stop offset="1" stop-color="#A16FF6"/>
</linearGradient>
<linearGradient id="paint2_linear_625_1473" x1="28" y1="17" x2="29" y2="17" gradientUnits="userSpaceOnUse">
<stop stop-color="#71EA9F"/>
<stop offset="1" stop-color="#A16FF6"/>
</linearGradient>
<linearGradient id="paint3_linear_625_1473" x1="15" y1="34" x2="33" y2="34" gradientUnits="userSpaceOnUse">
<stop stop-color="#71EA9F"/>
<stop offset="1" stop-color="#A16FF6"/>
</linearGradient>
<linearGradient id="paint4_linear_625_1473" x1="19" y1="24" x2="25" y2="24" gradientUnits="userSpaceOnUse">
<stop stop-color="#71EA9F"/>
<stop offset="1" stop-color="#A16FF6"/>
</linearGradient>
<linearGradient id="paint5_linear_625_1473" x1="19" y1="29" x2="21.62" y2="29" gradientUnits="userSpaceOnUse">
<stop stop-color="#71EA9F"/>
<stop offset="1" stop-color="#A16FF6"/>
</linearGradient>
<linearGradient id="paint6_linear_625_1473" x1="24.5" y1="35" x2="35" y2="35" gradientUnits="userSpaceOnUse">
<stop stop-color="#71EA9F"/>
<stop offset="1" stop-color="#A16FF6"/>
</linearGradient>
<linearGradient id="paint7_linear_625_1473" x1="27.25" y1="32.25" x2="32.25" y2="32.25" gradientUnits="userSpaceOnUse">
<stop stop-color="#71EA9F"/>
<stop offset="1" stop-color="#A16FF6"/>
</linearGradient>
<clipPath id="clip0_625_1473">
<rect width="48" height="48" rx="24" fill="white"/>
</clipPath>
</defs>
</svg>
