<svg width="80" height="48" viewBox="0 0 80 48" fill="none" xmlns="http://www.w3.org/2000/svg">
<g clip-path="url(#clip0_523_11363)">
<path fill-rule="evenodd" clip-rule="evenodd" d="M27.4124 29.3236C26.3139 29.3236 25.7804 29.4962 25.2625 28.8999C24.2425 27.7229 24.3209 23.8938 25.1213 22.7169C25.8432 21.6497 27.3968 21.9793 27.4124 24.3175C27.4281 25.981 27.4124 27.6445 27.4124 29.3079V29.3236ZM27.4124 21.3202C27.4124 21.3202 27.3968 21.2888 27.3811 21.2888C27.3654 21.2888 27.3654 21.2731 27.3497 21.2574L27.2241 21.0691C26.3924 19.7823 24.4622 19.9392 23.4107 21.2731C22.4692 22.4501 22.1239 24.4274 22.2181 26.2949C22.3122 28.2565 22.8615 29.8886 24.0698 30.6889C24.8231 31.1911 25.7961 31.0655 26.7847 31.0655C27.8205 31.0655 28.8562 31.0655 29.8919 31.0655C29.9076 30.6261 29.7978 29.9199 29.7664 29.4178C29.735 28.8214 29.7507 28.2408 29.7507 27.6445V20.5826C29.7507 20.0177 29.7821 17.3969 29.735 17.0674H27.4438V21.3202H27.4124Z" fill="white"/>
<path fill-rule="evenodd" clip-rule="evenodd" d="M49.4285 22.2303C51.7825 22.2303 52.0963 22.0106 52.0963 25.3689C52.0963 26.232 51.9865 30.5947 52.1277 31.0655H54.4032C54.466 30.6418 54.4032 27.2207 54.4032 26.5145C54.4032 24.1606 54.874 20.3786 51.5157 20.3472C50.0092 20.3472 48.5026 20.3472 46.9961 20.3472C47.0432 22.1362 47.0903 23.8781 47.0903 25.6828C47.0903 26.3733 47.0432 30.7673 47.1216 31.0655H49.4128V22.2303H49.4285Z" fill="white"/>
<path fill-rule="evenodd" clip-rule="evenodd" d="M14.8724 25.5881V29.3387C13.868 29.3387 12.1418 29.7153 12.3458 27.4712C12.4557 26.1373 13.4914 25.6351 14.8724 25.6037V25.5881ZM11.0276 22.5279C11.4199 22.4024 11.7024 22.2141 12.2046 22.0885C13.8523 21.6805 14.8096 22.1042 14.8253 24.0344C13.3345 24.0658 12.1418 24.4425 11.2787 25.2114C9.26997 26.9847 9.92908 30.908 12.644 31.0649C14.1191 31.1434 15.8453 31.0649 17.3362 31.0649C17.1949 29.5584 17.1792 28.2402 17.1792 26.7179C17.1792 24.1129 17.6657 20.8488 14.6527 20.2681C13.256 20.0013 12.1575 20.3466 11.0276 20.9429V22.5122V22.5279Z" fill="white"/>
<path fill-rule="evenodd" clip-rule="evenodd" d="M71.668 24.7096C71.8249 21.1943 74.5241 20.9119 74.5555 24.7096H71.668ZM76.6583 26.3573C76.878 23.8622 76.4229 21.3827 74.681 20.5509C73.6453 20.0488 72.3741 20.2528 71.5267 20.802C70.7892 21.2885 70.2399 22.0104 69.8476 23.0775C69.1257 25.0548 69.2512 27.9894 70.3341 29.5744C70.8205 30.2806 71.5895 30.9083 72.7508 31.1123C74.0847 31.3477 74.9949 31.0652 76.1091 30.7043V29.0252C75.1361 29.2919 73.7708 29.6529 72.8292 29.1036C72.0603 28.6485 71.6366 27.5814 71.6837 26.3573H76.674H76.6583Z" fill="white"/>
<path fill-rule="evenodd" clip-rule="evenodd" d="M37.0179 24.7093C37.065 23.595 37.4573 22.0414 38.4774 21.9944C39.6386 21.9473 39.8897 23.5794 39.9054 24.7093H37.0336H37.0179ZM41.9926 26.3413C42.228 23.9089 41.7415 21.351 40.031 20.5349C38.9795 20.0327 37.7241 20.2211 36.861 20.786C34.2716 22.5122 34.2403 27.4712 35.6683 29.5741C36.1548 30.2803 36.9394 30.908 38.085 31.112C39.4189 31.3474 40.3134 31.0649 41.4433 30.704V29.0248C40.439 29.3073 39.1522 29.6369 38.1635 29.1033C37.3789 28.6796 36.9708 27.5811 37.0022 26.357H41.9926V26.3413Z" fill="white"/>
<path fill-rule="evenodd" clip-rule="evenodd" d="M65.2641 29.0407C64.0244 29.4017 63.177 29.4174 62.4708 28.5699C61.388 27.2674 61.435 24.1916 62.5179 22.8891C63.2083 22.0573 64.0087 22.1044 65.2641 22.4026V20.5822C64.1499 19.7191 59.395 20.2056 59.3636 25.7766C59.3165 32.4618 65.1229 31.2848 65.2641 30.767V29.0407Z" fill="white"/>
<path fill-rule="evenodd" clip-rule="evenodd" d="M5.882 29.0567C4.61086 29.4019 3.88899 29.449 3.10434 28.6016C1.99013 27.3775 2.0686 24.1291 3.13572 22.905C3.88899 22.0419 4.56379 22.1047 5.882 22.4185V20.6452C5.74076 20.1901 1.8332 19.4839 0.420833 23.2973C-0.22258 25.0392 -0.159808 27.7855 0.828851 29.3862C0.923009 29.5431 1.01717 29.6687 1.12702 29.8256C1.23687 29.9669 1.36241 30.0767 1.48796 30.2022C1.92736 30.673 2.61785 31.034 3.44958 31.1595C4.01453 31.2537 5.61522 31.2694 5.89769 30.7986V29.0723L5.882 29.0567Z" fill="white"/>
<path fill-rule="evenodd" clip-rule="evenodd" d="M10.9805 16H17.1792V17.6948H10.9805V16Z" fill="#575757"/>
<path d="M76.7058 20.0017V18.2754H76.0938V17.9302H77.7415V18.2754H77.1295V20.0017H76.7058ZM78.0083 20.0017V17.9302H78.636L79.0126 19.3425L79.3736 17.9302H80.0013V20.0017H79.609V18.3696L79.201 20.0017H78.7929L78.3849 18.3696V20.0017H77.9926H78.0083Z" fill="white"/>
</g>
<defs>
<clipPath id="clip0_523_11363">
<rect width="80" height="48" fill="white"/>
</clipPath>
</defs>
</svg>
