<svg width="48" height="48" viewBox="0 0 48 48" fill="none" xmlns="http://www.w3.org/2000/svg">
<g clip-path="url(#clip0_523_12149)">
<path d="M23.96 46.0008C36.0882 46.0008 45.9201 36.1509 45.9201 24.0004C45.9201 11.8499 36.0882 2 23.96 2C11.8318 2 2 11.8499 2 24.0004C2 36.1509 11.8318 46.0008 23.96 46.0008Z" fill="white"/>
<path d="M38.0672 29.6779C38.0672 31.956 36.2239 33.8032 33.9496 33.8032C31.6754 33.8032 29.832 31.956 29.832 29.6779C29.832 27.3999 31.6754 25.5527 33.9496 25.5527C36.2239 25.5527 38.0672 27.3999 38.0672 29.6779Z" fill="black"/>
<path d="M14.1055 33.2293V13.5093H28.077V17.202H17.9276L17.9155 21.9226H26.2184L26.2496 25.387H17.9467L17.9276 33.2293H14.1055Z" fill="black"/>
</g>
<defs>
<clipPath id="clip0_523_12149">
<rect width="43.9201" height="44" fill="white" transform="translate(2 2)"/>
</clipPath>
</defs>
</svg>
