<svg width="48" height="48" viewBox="0 0 48 48" fill="none" xmlns="http://www.w3.org/2000/svg">
<path d="M17.4517 37.106C17.4517 37.106 15.6207 38.1707 18.7547 38.5311C22.5516 38.9642 24.4921 38.9021 28.6762 38.1102C28.6762 38.1102 29.7762 38.7999 31.3125 39.3973C21.9328 43.4173 10.0844 39.1645 17.4517 37.106Z" fill="white"/>
<path d="M16.3053 31.8601C16.3053 31.8601 14.2517 33.3803 17.3881 33.7047C21.444 34.1231 24.647 34.1573 30.1894 33.0901C30.1894 33.0901 30.956 33.8673 32.1614 34.2923C20.8208 37.6084 8.18945 34.5538 16.3053 31.8601Z" fill="white"/>
<path d="M25.9675 22.9616C28.2786 25.6225 25.3602 28.0169 25.3602 28.0169C25.3602 28.0169 31.2287 24.9875 28.5336 21.1939C26.0164 17.6561 24.0861 15.8983 34.536 9.83777C34.536 9.83777 18.1331 13.9345 25.9675 22.9616Z" fill="white"/>
<path d="M38.3728 40.9861C38.3728 40.9861 39.7278 42.1026 36.8806 42.9663C31.4665 44.6064 14.3466 45.1017 9.59073 43.0316C7.88113 42.2879 11.0871 41.2558 12.0956 41.0392C13.1473 40.8111 13.7484 40.8536 13.7484 40.8536C11.8471 39.5143 1.45947 43.4835 8.47196 44.6202C27.596 47.7216 43.3333 43.2237 38.3728 40.9861Z" fill="white"/>
<path d="M18.3314 26.425C18.3314 26.425 9.62316 28.4934 15.2476 29.2445C17.6224 29.5624 22.3566 29.4905 26.7663 29.121C30.3702 28.817 33.9889 28.1707 33.9889 28.1707C33.9889 28.1707 32.7181 28.7149 31.7988 29.3426C22.9557 31.6684 5.87244 30.5864 10.7905 28.2075C14.9497 26.197 18.3314 26.425 18.3314 26.425Z" fill="white"/>
<path d="M33.9541 35.1567C42.9435 30.4855 38.7872 25.9964 35.8861 26.6012C35.175 26.7492 34.858 26.8775 34.858 26.8775C34.858 26.8775 35.122 26.4639 35.6261 26.285C41.3654 24.2672 45.7793 32.236 33.7734 35.3922C33.7734 35.3922 33.9125 35.2679 33.9541 35.1567Z" fill="white"/>
<path d="M28.5328 0.0515137C28.5328 0.0515137 33.5113 5.03167 23.8109 12.6898C16.0322 18.8328 22.0371 22.3355 23.8077 26.3374C19.2671 22.2407 15.935 18.6344 18.1704 15.2779C21.4516 10.351 30.5415 7.9622 28.5328 0.0515137Z" fill="white"/>
<path d="M19.2154 47.8149C27.8441 48.3672 41.0945 47.5084 41.4083 43.4255C41.4083 43.4255 40.8051 44.9733 34.2771 46.2025C26.9123 47.5885 17.8289 47.4267 12.4414 46.5384C12.4414 46.5384 13.5443 47.4512 19.2154 47.8149Z" fill="white"/>
</svg>
