<svg width="48" height="48" viewBox="0 0 48 48" fill="none" xmlns="http://www.w3.org/2000/svg">
<g clip-path="url(#clip0_523_12234)">
<path d="M5.18455 29.0253C5.18455 30.8582 5.58667 32.2652 6.11264 33.1165C6.80208 34.2316 7.8303 34.7049 8.87863 34.7049C10.2306 34.7049 11.4675 34.3693 13.8511 31.0725C15.7611 28.4302 18.0108 24.7212 19.5248 22.3959L22.0887 18.4566C23.8697 15.7207 25.9312 12.6795 28.2948 10.618C30.225 8.93534 32.306 8.00061 34.4009 8.00061C37.918 8.00061 41.2681 10.0388 43.832 13.8613C46.638 18.0476 48 23.3208 48 28.7623C48 31.9974 47.3624 34.3743 46.2773 36.2522C45.2292 38.0682 43.186 39.8828 39.7491 39.8828V34.7041C42.692 34.7041 43.4263 31.9998 43.4263 28.9051C43.4263 24.495 42.398 19.601 40.1329 16.104C38.5256 13.6235 36.4424 12.1079 34.1505 12.1079C31.6717 12.1079 29.6769 13.9777 27.4351 17.3107C26.2432 19.0819 25.0198 21.24 23.6459 23.6755L22.1336 26.3546C19.0959 31.742 18.3263 32.9685 16.8073 34.9928C14.145 38.5379 11.8714 39.882 8.87863 39.882C5.3281 39.882 3.08306 38.3445 1.69253 36.0276C0.557541 34.1399 0 31.6626 0 28.8401L5.18455 29.0253Z" fill="white"/>
<path d="M4.08984 14.2262C6.46678 10.5623 9.89708 8 13.8314 8C16.1098 8 18.3754 8.67436 20.7403 10.6057C23.3275 12.7169 26.0851 16.1952 29.5254 21.9255L30.7589 23.9813C33.7368 28.9423 35.431 31.4945 36.4226 32.6981C37.6977 34.2436 38.5908 34.7045 39.7509 34.7045C42.6939 34.7045 43.4281 32.0002 43.4281 28.9055L48.0019 28.7619C48.0019 31.997 47.3643 34.3739 46.2792 36.2518C45.2311 38.0678 43.1879 39.8824 39.7509 39.8824C37.6143 39.8824 35.7215 39.4183 33.6283 37.4435C32.0198 35.9279 30.1378 33.2355 28.6906 30.8151L24.3857 23.6242C22.2259 20.0154 20.2439 17.3246 19.0978 16.106C17.8641 14.7954 16.2783 13.2131 13.7478 13.2131C11.6998 13.2131 9.96041 14.6503 8.50493 16.8487L4.08984 14.2262Z" fill="white"/>
<path d="M13.7459 13.2131C11.6979 13.2131 9.95853 14.6503 8.50305 16.8487C6.44479 19.9551 5.18555 24.5821 5.18555 29.0255C5.18555 30.8584 5.58767 32.2654 6.11365 33.1167L1.69253 36.0278C0.557541 34.1401 0 31.6628 0 28.8403C0 23.7075 1.40883 18.3576 4.08796 14.2262C6.4649 10.5623 9.89519 8 13.8295 8L13.7459 13.2131Z" fill="white"/>
</g>
<defs>
<clipPath id="clip0_523_12234">
<rect width="48" height="48" fill="white"/>
</clipPath>
</defs>
</svg>
