<svg width="48" height="48" viewBox="0 0 48 48" fill="none" xmlns="http://www.w3.org/2000/svg">
<path d="M41.1832 5H33.5469V12.6364H41.1832V5Z" fill="black"/>
<path d="M44.9996 5H37.3633V12.6364H44.9996V5Z" fill="#DFDFDF"/>
<path d="M10.6364 5H3V12.6364H10.6364V5Z" fill="black"/>
<path d="M10.6364 12.6364H3V20.2728H10.6364V12.6364Z" fill="black"/>
<path d="M10.6364 20.2728H3V27.9091H10.6364V20.2728Z" fill="black"/>
<path d="M10.6364 27.9091H3V35.5454H10.6364V27.9091Z" fill="black"/>
<path d="M10.6364 35.5454H3V43.1818H10.6364V35.5454Z" fill="black"/>
<path d="M14.4528 5H6.81641V12.6364H14.4528V5Z" fill="#DFDFDF"/>
<path d="M44.9996 12.6365H37.3633V20.2728H44.9996V12.6365Z" fill="#DFDFDF"/>
<path d="M14.4528 12.6365H6.81641V20.2728H14.4528V12.6365Z" fill="#DFDFDF"/>
<path d="M33.5465 12.6365H25.9102V20.2728H33.5465V12.6365Z" fill="black"/>
<path d="M37.3629 12.6365H29.7266V20.2728H37.3629V12.6365Z" fill="#DFDFDF"/>
<path d="M22.0895 12.6365H14.4531V20.2728H22.0895V12.6365Z" fill="#DFDFDF"/>
<path d="M29.7262 20.2727H22.0898V27.9091H29.7262V20.2727Z" fill="#D1D1D1"/>
<path d="M37.3629 20.2727H29.7266V27.9091H37.3629V20.2727Z" fill="#D1D1D1"/>
<path d="M22.0895 20.2727H14.4531V27.9091H22.0895V20.2727Z" fill="#D1D1D1"/>
<path d="M25.9098 27.9089H18.2734V35.5453H25.9098V27.9089Z" fill="black"/>
<path d="M29.7262 27.9089H22.0898V35.5453H29.7262V27.9089Z" fill="#B0B0B0"/>
<path d="M44.9996 20.2727H37.3633V27.9091H44.9996V20.2727Z" fill="#D1D1D1"/>
<path d="M14.4528 20.2727H6.81641V27.9091H14.4528V20.2727Z" fill="#D1D1D1"/>
<path d="M41.1832 27.9089H33.5469V35.5453H41.1832V27.9089Z" fill="black"/>
<path d="M44.9996 27.9089H37.3633V35.5453H44.9996V27.9089Z" fill="#B0B0B0"/>
<path d="M41.1832 35.5454H33.5469V43.1818H41.1832V35.5454Z" fill="black"/>
<path d="M14.4528 27.9089H6.81641V35.5453H14.4528V27.9089Z" fill="#B0B0B0"/>
<path d="M44.9996 35.5454H37.3633V43.1818H44.9996V35.5454Z" fill="#DFDFDF"/>
<path d="M14.4528 35.5454H6.81641V43.1818H14.4528V35.5454Z" fill="#DFDFDF"/>
</svg>
