<svg width="48" height="48" viewBox="0 0 48 48" fill="none" xmlns="http://www.w3.org/2000/svg">
<path d="M25.3444 46.9999L24.1199 46.5814C24.1199 46.5814 24.2695 40.3388 22.0289 39.8908C20.5358 38.1581 22.2684 -33.5896 27.6448 39.6516C27.6448 39.6516 25.7927 40.5774 25.4642 42.1608C25.1055 43.7142 25.3444 46.9999 25.3444 46.9999Z" fill="#A6A385"/>
<path d="M26.003 40.9661C26.003 40.9661 36.7266 33.9166 34.2171 19.2501C31.7979 8.58702 26.0927 5.0922 25.4654 3.74794C24.7785 2.7921 24.1211 1.11963 24.1211 1.11963L24.5694 30.7801C24.5694 30.8102 23.643 39.8604 26.003 40.9661Z" fill="white"/>
<path d="M23.4946 41.3543C23.4946 41.3543 13.4281 34.4841 14.0256 22.3871C14.593 10.2897 21.7021 4.3456 23.0761 3.27032C23.9724 2.31448 24.0022 1.95584 24.062 1C24.6893 2.34426 24.5699 21.1027 24.6592 23.3128C24.9279 31.8257 24.1815 39.7417 23.4946 41.3543Z" fill="#C7C7C7"/>
</svg>
