<svg width="48" height="48" viewBox="0 0 48 48" fill="none" xmlns="http://www.w3.org/2000/svg">
<g clip-path="url(#clip0_299_3870)">
<path d="M24.2595 47.9109C23.5993 47.9109 22.9831 47.7349 22.4109 47.4268L16.5568 43.9495C15.6765 43.4654 16.1166 43.2893 16.3807 43.2013C17.5692 42.8051 17.7892 42.7171 19.0217 42.0129C19.1537 41.9248 19.3298 41.9688 19.4618 42.0569L23.9514 44.7418C24.1275 44.8298 24.3475 44.8298 24.4796 44.7418L42.0418 34.5742C42.2179 34.4862 42.3059 34.3101 42.3059 34.0901V13.7989C42.3059 13.5788 42.2179 13.4027 42.0418 13.3147L24.4796 3.19113C24.3035 3.1031 24.0835 3.1031 23.9514 3.19113L6.3892 13.3147C6.21314 13.4027 6.1251 13.6228 6.1251 13.7989V34.0901C6.1251 34.2661 6.21314 34.4862 6.3892 34.5742L11.1869 37.3472C13.7838 38.6677 15.4124 37.1271 15.4124 35.5866V15.5595C15.4124 15.2954 15.6325 15.0313 15.9406 15.0313H18.1854C18.4495 15.0313 18.7136 15.2514 18.7136 15.5595V35.5866C18.7136 39.0638 16.8209 41.0885 13.5197 41.0885C12.5074 41.0885 11.7151 41.0885 9.47029 39.9881L4.84865 37.3472C3.70425 36.687 3 35.4545 3 34.1341V13.8429C3 12.5224 3.70425 11.29 4.84865 10.6298L22.4109 0.462163C23.5113 -0.154054 25.0078 -0.154054 26.1082 0.462163L43.6704 10.6298C44.8148 11.29 45.519 12.5224 45.519 13.8429V34.1341C45.519 35.4545 44.8148 36.687 43.6704 37.3472L26.1082 47.5148C25.536 47.7789 24.8757 47.9109 24.2595 47.9109ZM29.6734 33.958C21.9707 33.958 20.3861 30.4368 20.3861 27.4437C20.3861 27.1796 20.6062 26.9155 20.9143 26.9155H23.2031C23.4672 26.9155 23.6873 27.0916 23.6873 27.3557C24.0394 29.6885 25.0518 30.8329 29.7174 30.8329C33.4148 30.8329 34.9993 29.9966 34.9993 28.0159C34.9993 26.8715 34.5592 26.0352 28.7931 25.463C23.9954 24.9788 21.0024 23.9225 21.0024 20.0931C21.0024 16.5278 23.9954 14.4151 29.0132 14.4151C34.6472 14.4151 37.4202 16.3518 37.7723 20.5773C37.7723 20.7093 37.7283 20.8414 37.6402 20.9734C37.5522 21.0614 37.4202 21.1495 37.2881 21.1495H34.9993C34.7792 21.1495 34.5592 20.9734 34.5151 20.7533C33.987 18.3325 32.6225 17.5402 29.0132 17.5402C24.9638 17.5402 24.4796 18.9487 24.4796 20.0051C24.4796 21.2815 25.0518 21.6777 30.5097 22.3819C35.9236 23.0862 38.4765 24.0985 38.4765 27.8839C38.4325 31.7572 35.2634 33.958 29.6734 33.958Z" fill="white"/>
</g>
<defs>
<clipPath id="clip0_299_3870">
<rect width="42.519" height="48" fill="white" transform="translate(3)"/>
</clipPath>
</defs>
</svg>
