<svg width="48" height="48" viewBox="0 0 48 48" fill="none" xmlns="http://www.w3.org/2000/svg">
<path d="M18.7214 22.2638C14.6737 19.9252 12.6949 15.158 13.9092 10.6456C15.1235 6.13319 19.2161 3 23.8784 3C28.5557 3 32.6483 6.13319 33.8476 10.6456C35.0619 15.158 33.0831 19.9252 29.0354 22.2638L25.9322 16.882C27.5363 15.9525 28.3308 14.0636 27.8511 12.2646C27.3714 10.4657 25.7373 9.2214 23.8784 9.2214C22.0195 9.2214 20.3854 10.4657 19.9057 12.2646C19.426 14.0636 20.2055 15.9525 21.8246 16.882L18.7214 22.2638Z" fill="white"/>
<path d="M40.8323 24.7673C44.8799 27.106 46.8588 31.8732 45.6445 36.3856C44.4302 40.898 40.3376 44.0312 35.6753 44.0312C31.013 44.0312 26.9053 40.898 25.706 36.3856C24.4917 31.8732 26.4706 27.106 30.5183 24.7673L33.6215 30.1492C32.0174 31.0787 31.2228 32.9676 31.7026 34.7665C32.1823 36.5655 33.8163 37.8098 35.6753 37.8098C37.5342 37.8098 39.1682 36.5655 39.648 34.7665C40.1277 32.9676 39.3481 31.0787 37.7291 30.1492L40.8323 24.7673Z" fill="white"/>
<path d="M22.6488 33.702C22.6488 38.3793 19.5156 42.4719 15.0033 43.6712C10.4909 44.8855 5.72363 42.9067 3.38498 38.859C1.04634 34.8114 1.72095 29.6993 5.01904 26.4012C8.31713 23.1031 13.4292 22.4285 17.4768 24.7672L14.3736 30.1491C12.7696 29.2196 10.7307 29.4895 9.4115 30.8087C8.09226 32.1279 7.82241 34.1518 8.75188 35.7708C9.68134 37.3749 11.5702 38.1694 13.3692 37.6897C15.1682 37.21 16.4124 35.5759 16.4124 33.717H22.6488V33.702Z" fill="white"/>
</svg>
