<svg width="48" height="48" viewBox="0 0 48 48" fill="none" xmlns="http://www.w3.org/2000/svg">
<path d="M45.6986 23.4602L43.8514 22.3168C43.8359 22.1369 43.8182 21.9574 43.7989 21.7787L45.3862 20.2981C45.5477 20.1476 45.62 19.9248 45.5763 19.7091C45.5338 19.4926 45.382 19.3144 45.1756 19.2375L43.1464 18.4787C43.0956 18.3029 43.0422 18.1285 42.9875 17.9549L44.2533 16.1968C44.3824 16.0182 44.4088 15.7857 44.3248 15.5818C44.2407 15.3787 44.057 15.2333 43.8396 15.1976L41.6999 14.8495C41.6166 14.6872 41.53 14.5275 41.4426 14.369L42.3418 12.3953C42.4339 12.1943 42.415 11.9606 42.2922 11.7782C42.1699 11.5949 41.9626 11.4877 41.7415 11.4961L39.5698 11.5717C39.4576 11.4313 39.3432 11.2922 39.2268 11.1556L39.7258 9.04019C39.7762 8.82537 39.7127 8.60046 39.5563 8.4445C39.4012 8.28896 39.1759 8.22464 38.9611 8.27508L36.8461 8.77366C36.7091 8.65764 36.5699 8.54287 36.4291 8.43063L36.5052 6.25892C36.5136 6.03906 36.4064 5.83013 36.2231 5.70821C36.0394 5.58546 35.8069 5.56697 35.6064 5.65819L33.6331 6.55781C33.4738 6.47037 33.314 6.38377 33.1526 6.30012L32.8037 4.15994C32.7684 3.94302 32.6229 3.75889 32.4195 3.67481C32.2164 3.59032 31.9835 3.61764 31.8049 3.74628L30.0456 5.01206C29.8724 4.95699 29.6983 4.90402 29.5226 4.85357L28.7638 2.82395C28.6869 2.61712 28.5086 2.46537 28.2921 2.42249C28.0761 2.38003 27.8537 2.45191 27.7036 2.6125L26.223 4.20114C26.0443 4.18138 25.8644 4.1633 25.6849 4.14859L24.5415 2.301C24.4259 2.11392 24.2211 2 24.0008 2C23.7806 2 23.5758 2.11392 23.4606 2.301L22.3172 4.14859C22.1373 4.1633 21.9574 4.18138 21.7787 4.20114L20.2977 2.6125C20.1476 2.45191 19.9248 2.38003 19.7091 2.42249C19.4926 2.46579 19.3144 2.61712 19.2375 2.82395L18.4787 4.85357C18.3029 4.90402 18.1289 4.95741 17.9553 5.01206L16.1964 3.74628C16.0177 3.61722 15.7848 3.5899 15.5814 3.67481C15.3783 3.75889 15.2325 3.94302 15.1971 4.15994L14.8482 6.30012C14.6868 6.38377 14.527 6.46995 14.3677 6.55781L12.3944 5.65819C12.1939 5.56655 11.9602 5.58546 11.7777 5.70821C11.5944 5.83013 11.4872 6.03906 11.4957 6.25892L11.5713 8.43063C11.4309 8.54287 11.2918 8.65764 11.1543 8.77366L9.03934 8.27508C8.82453 8.22506 8.5992 8.28896 8.44366 8.4445C8.28728 8.60046 8.2238 8.82537 8.27424 9.04019L8.7724 11.1556C8.65679 11.2926 8.54245 11.4313 8.43021 11.5717L6.2585 11.4961C6.03948 11.4898 5.83013 11.5949 5.70779 11.7782C5.58504 11.9606 5.56655 12.1943 5.65777 12.3953L6.55739 14.369C6.46995 14.5275 6.38335 14.6872 6.2997 14.8495L4.15994 15.1976C3.9426 15.2329 3.75931 15.3783 3.67481 15.5818C3.59074 15.7857 3.61806 16.0182 3.74628 16.1968L5.01206 17.9549C4.95699 18.1285 4.9036 18.3029 4.85315 18.4787L2.82353 19.2375C2.61755 19.3144 2.46579 19.4926 2.42291 19.7091C2.38003 19.9252 2.45191 20.1476 2.61292 20.2981L4.20071 21.7787C4.18096 21.9574 4.1633 22.1373 4.14817 22.3168L2.301 23.4602C2.11392 23.5758 2 23.7801 2 24.0008C2 24.2215 2.11392 24.4258 2.301 24.541L4.14817 25.6845C4.1633 25.8644 4.18096 26.0439 4.20071 26.2226L2.61292 27.7036C2.45191 27.8537 2.38003 28.0765 2.42291 28.2921C2.46579 28.5086 2.61755 28.6865 2.82353 28.7638L4.85315 29.5226C4.9036 29.6983 4.95699 29.8728 5.01206 30.0464L3.74628 31.8049C3.61764 31.9839 3.59032 32.2164 3.67481 32.4195C3.75931 32.6234 3.94302 32.7688 4.16036 32.8037L6.2997 33.1518C6.38335 33.314 6.46911 33.4738 6.55739 33.6331L5.65777 35.606C5.56612 35.8065 5.58504 36.0398 5.70779 36.2231C5.83055 36.4068 6.03948 36.514 6.2585 36.5052L8.42937 36.4291C8.54245 36.5704 8.65637 36.7087 8.7724 36.8461L8.27424 38.9619C8.2238 39.1763 8.28728 39.4004 8.44366 39.5563C8.59878 39.7131 8.82453 39.7758 9.03934 39.7253L11.1543 39.2272C11.2918 39.344 11.4309 39.4576 11.5713 39.5694L11.4957 41.7415C11.4872 41.9614 11.5944 42.1699 11.7777 42.2926C11.9602 42.415 12.1939 42.4335 12.3944 42.3418L14.3677 41.4426C14.5266 41.5309 14.6864 41.6166 14.8482 41.7003L15.1971 43.8392C15.2325 44.057 15.3779 44.2411 15.5814 44.3248C15.7844 44.4093 16.0177 44.3819 16.1964 44.2537L17.9544 42.9871C18.1281 43.0422 18.3025 43.096 18.4782 43.1464L19.237 45.1752C19.314 45.3812 19.4922 45.5338 19.7087 45.5758C19.9248 45.6196 20.1472 45.5472 20.2973 45.3858L21.7783 43.798C21.9569 43.8186 22.1369 43.8359 22.3168 43.8518L23.4602 45.699C23.5754 45.8852 23.7801 46 24.0004 46C24.2207 46 24.4254 45.8857 24.541 45.699L25.6845 43.8518C25.8644 43.8359 26.0439 43.8186 26.2226 43.798L27.7032 45.3858C27.8532 45.5472 28.0761 45.6196 28.2917 45.5758C28.5082 45.5334 28.6865 45.3812 28.7634 45.1752L29.5222 43.1464C29.6979 43.096 29.8724 43.0422 30.046 42.9871L31.8044 44.2537C31.9831 44.3819 32.216 44.4093 32.419 44.3248C32.6225 44.2411 32.768 44.0566 32.8033 43.8392L33.1522 41.7003C33.3136 41.6166 33.4734 41.5296 33.6327 41.4426L35.606 42.3418C35.8065 42.4335 36.0398 42.415 36.2227 42.2926C36.406 42.1699 36.5128 41.9618 36.5048 41.7415L36.4291 39.5694C36.5695 39.4571 36.7087 39.344 36.8457 39.2272L38.9607 39.7253C39.1755 39.7758 39.4008 39.7131 39.5559 39.5563C39.7123 39.4004 39.7758 39.1763 39.7253 38.9619L39.2272 36.8461C39.3432 36.7087 39.4576 36.5704 39.5694 36.4291L41.7411 36.5052C41.9601 36.514 42.1695 36.4068 42.2918 36.2231C42.4145 36.0398 42.4335 35.8065 42.3414 35.606L41.4422 33.6331C41.53 33.4738 41.6162 33.314 41.6995 33.1518L43.8392 32.8037C44.057 32.7688 44.2403 32.6234 44.3243 32.4195C44.4084 32.2164 44.3819 31.9839 44.2529 31.8049L42.9871 30.0464C43.0418 29.8728 43.0951 29.6983 43.146 29.5226L45.1752 28.7638C45.3816 28.6865 45.5338 28.5086 45.5758 28.2921C45.6196 28.0761 45.5472 27.8537 45.3858 27.7036L43.7984 26.2226C43.8178 26.0439 43.8354 25.864 43.851 25.6845L45.6982 24.541C45.8852 24.4258 45.9992 24.2211 45.9992 24.0008C45.9992 23.7806 45.8857 23.5758 45.6986 23.4602ZM33.3355 38.7837C32.6301 38.6315 32.1815 37.9362 32.3329 37.2287C32.4838 36.522 33.1787 36.0722 33.8837 36.2244C34.5891 36.3753 35.0385 37.0719 34.8871 37.7781C34.7358 38.4844 34.0405 38.9346 33.3355 38.7837ZM32.7079 34.5386C32.0642 34.4007 31.4311 34.8102 31.2933 35.4551L30.6375 38.5155C28.6137 39.434 26.3663 39.9444 23.9996 39.9444C21.5786 39.9444 19.2824 39.4088 17.2226 38.4511L16.5672 35.3908C16.4293 34.7467 15.7962 34.3364 15.153 34.4747L12.4512 35.0549C11.9497 34.5386 11.483 33.9888 11.0542 33.4082H24.2005C24.3493 33.4082 24.4486 33.3813 24.4486 33.2459V28.5956C24.4486 28.4603 24.3493 28.4334 24.2005 28.4334H20.3557V25.4856H24.5141C24.8937 25.4856 26.5438 25.5941 27.0713 27.7032C27.2365 28.3518 27.5993 30.4617 27.8474 31.1373C28.0945 31.8948 29.101 33.4082 30.1734 33.4082H36.7242C36.7986 33.4082 36.8781 33.3998 36.9617 33.3847C36.5073 34.0022 36.0087 34.5866 35.4719 35.1326L32.7079 34.5386ZM14.5254 38.7198C13.82 38.872 13.1255 38.4221 12.9737 37.7155C12.8228 37.0075 13.2714 36.3127 13.9768 36.1605C14.6822 36.0096 15.3771 36.4594 15.5284 37.166C15.6793 37.8723 15.2304 38.5684 14.5254 38.7198ZM9.53834 18.4972C9.83093 19.1576 9.5333 19.9315 8.87371 20.2237C8.21413 20.5167 7.4423 20.2186 7.14971 19.5578C6.85713 18.8969 7.15476 18.1243 7.81434 17.8313C8.47435 17.5387 9.24575 17.8363 9.53834 18.4972ZM8.00562 22.1305L10.8201 20.8799C11.4212 20.613 11.6928 19.9084 11.4259 19.306L10.8462 17.9952H13.1259V28.2711H8.52647C8.12753 26.8687 7.91355 25.3885 7.91355 23.8588C7.91355 23.2748 7.94508 22.6976 8.00562 22.1305ZM20.3565 21.1326V18.1037H25.7854C26.0658 18.1037 27.7654 18.4278 27.7654 19.6986C27.7654 20.7538 26.4618 21.1321 25.3898 21.1321H20.3565V21.1326ZM40.086 23.8588C40.086 24.2606 40.0713 24.6583 40.0419 25.0531H38.3915C38.2262 25.0531 38.1598 25.1615 38.1598 25.3234V26.0813C38.1598 27.8654 37.1538 28.2535 36.2723 28.3522C35.4328 28.4468 34.5021 28.0008 34.3873 27.4871C33.8921 24.7016 33.0669 24.1068 31.7637 23.0789C33.3809 22.0519 35.0637 20.5369 35.0637 18.5089C35.0637 16.3191 33.5625 14.9399 32.5393 14.2635C31.1037 13.3172 29.5142 13.1276 29.0854 13.1276H12.0165C14.3311 10.5443 17.4681 8.71439 21.0161 8.0485L23.0281 10.1592C23.4829 10.6355 24.2363 10.6532 24.7121 10.1979L26.9633 8.04471C31.6804 8.9229 35.6741 11.8593 37.9757 15.8878L36.4346 19.3686C36.1685 19.971 36.44 20.6756 37.0408 20.9425L40.0078 22.2604C40.0591 22.7872 40.086 23.3194 40.086 23.8588ZM23.0289 6.25303C23.5502 5.75362 24.3771 5.77337 24.8761 6.29549C25.3742 6.81887 25.3553 7.64661 24.8328 8.14561C24.3115 8.64502 23.4846 8.62569 22.9856 8.10273C22.4879 7.58019 22.5068 6.75245 23.0289 6.25303ZM38.3225 18.5606C38.6147 17.9002 39.3865 17.6022 40.0461 17.8952C40.7057 18.1878 41.0033 18.9613 40.7107 19.6217C40.4186 20.2825 39.6467 20.5806 38.9867 20.2876C38.328 19.995 38.0303 19.2219 38.3225 18.5606Z" fill="white"/>
</svg>
