<svg width="48" height="48" viewBox="0 0 48 48" fill="none" xmlns="http://www.w3.org/2000/svg">
<g clip-path="url(#clip0_301_670)">
<path d="M36.8163 32.9971C42.6786 27.1352 43.6529 18.6057 38.9924 13.9455C34.3325 9.2859 25.8034 10.26 19.9415 16.1216C14.0796 21.9833 15.7753 33.1823 17.7658 35.1731C19.3743 36.7816 30.9548 38.8586 36.8163 32.9971Z" fill="white"/>
<path d="M12.7636 24.5268C9.36279 21.126 4.41358 20.5598 1.70911 23.2641C-0.994656 25.9681 -0.429359 30.918 2.97212 34.3182C6.3736 37.7201 12.8718 36.7361 14.0259 35.5809C14.9599 34.6485 16.1654 27.9279 12.7636 24.5268Z" fill="white"/>
<path d="M24.4975 31.5603C23.8967 32.1133 23.3697 32.5214 22.9167 32.7837C22.4637 33.0468 22.0317 33.1781 21.6206 33.1781C21.1478 33.1781 20.7663 32.9948 20.4771 32.6281C20.1873 32.2609 20.043 31.7687 20.043 31.1494C20.043 30.2215 20.2441 29.1075 20.6463 27.8087C21.0479 26.5088 21.5369 25.311 22.1112 24.2152L23.7951 23.5918C23.8479 23.5741 23.8881 23.5651 23.9147 23.5651C24.0425 23.5651 24.148 23.6593 24.229 23.8467C24.3109 24.035 24.3521 24.2881 24.3521 24.6062C24.3521 25.5078 24.1446 26.3807 23.7287 27.2248C23.3129 28.0693 22.6635 28.9706 21.7797 29.9297C21.7442 30.3894 21.7266 30.7051 21.7266 30.8776C21.7266 31.2624 21.7972 31.5669 21.9386 31.7924C22.0802 32.0183 22.2678 32.1304 22.5022 32.1304C22.7412 32.1304 22.9951 32.0449 23.2648 31.8725C23.5339 31.6998 23.945 31.3422 24.4973 30.7982V31.5603H24.4975ZM21.9587 28.9687C22.5198 28.3447 22.9756 27.6449 23.3245 26.8707C23.6734 26.0962 23.8477 25.4299 23.8477 24.8717C23.8477 24.709 23.8237 24.5768 23.7754 24.4775C23.7268 24.3779 23.6644 24.3279 23.5895 24.3279C23.4266 24.3279 23.1886 24.735 22.8769 25.5494C22.5652 26.3636 22.2592 27.5035 21.9587 28.9687Z" fill="#575757"/>
<path d="M29.4554 31.5602C28.8943 32.1132 28.3906 32.5214 27.944 32.7836C27.4975 33.0467 27.0052 33.1781 26.4657 33.1781C25.8646 33.1781 25.3796 32.9858 25.01 32.6017C24.6412 32.2166 24.457 31.711 24.457 31.0832C24.457 30.1465 24.7816 29.2989 25.432 28.5409C26.0811 27.7826 26.8018 27.4037 27.5928 27.4037C28.0039 27.4037 28.3328 27.5102 28.5806 27.7222C28.8281 27.9346 28.9519 28.2128 28.9519 28.5575C28.9519 29.4726 27.9797 30.2147 26.0351 30.785C26.2116 31.6464 26.6734 32.0778 27.4204 32.0778C27.7123 32.0778 27.9904 31.9993 28.2554 31.8429C28.5211 31.6857 28.9207 31.3371 29.4556 30.7983L29.4554 31.5602ZM25.9816 30.3341C27.1127 30.0156 27.6787 29.4282 27.6787 28.5707C27.6787 28.1465 27.5238 27.9344 27.2148 27.9344C26.923 27.9344 26.6448 28.1562 26.3798 28.6008C26.114 29.0448 25.9816 29.6222 25.9816 30.3341Z" fill="#575757"/>
<path d="M36.5386 31.5604C35.8314 32.2322 35.3253 32.6702 35.0206 32.8738C34.7157 33.077 34.424 33.1784 34.1453 33.1784C33.4469 33.1784 33.1179 32.5621 33.1575 31.3288C32.7156 31.9606 32.3077 32.4269 31.9342 32.728C31.561 33.0285 31.1755 33.1784 30.7773 33.1784C30.3889 33.1784 30.0586 32.9965 29.7864 32.6318C29.5141 32.2671 29.3789 31.8199 29.3789 31.289C29.3789 30.6264 29.5608 29.9943 29.9252 29.3929C30.2902 28.7917 30.7575 28.3061 31.3275 27.9348C31.8975 27.5635 32.4018 27.3776 32.8389 27.3776C33.3915 27.3776 33.7784 27.6319 33.9994 28.1399L35.3543 27.3911H35.7261L35.1409 29.3333C34.8405 30.3104 34.6897 30.9801 34.6897 31.3423C34.6897 31.7222 34.8242 31.9123 35.094 31.9123C35.2657 31.9123 35.4558 31.8207 35.6636 31.6371C35.8715 31.4534 36.1627 31.1739 36.5382 30.7983V31.5604H36.5386ZM31.6858 31.9254C32.1277 31.9254 32.5441 31.5488 32.936 30.7954C33.3272 30.0416 33.5226 29.3461 33.5226 28.7099C33.5226 28.4627 33.4668 28.269 33.3569 28.13C33.246 27.9903 33.098 27.9211 32.9128 27.9211C32.4706 27.9211 32.0513 28.2967 31.6565 29.0482C31.261 29.7998 31.0629 30.4914 31.0629 31.1229C31.0629 31.3619 31.1217 31.5552 31.2387 31.7034C31.3557 31.8515 31.5042 31.9254 31.6858 31.9254Z" fill="#575757"/>
<path d="M41.4912 31.5603C40.3817 32.6474 39.5263 33.1914 38.9254 33.1914C38.6555 33.1914 38.4277 33.0775 38.2425 32.8506C38.0573 32.6228 37.964 32.3409 37.964 32.0047C37.964 31.3816 38.2981 30.5467 38.9654 29.499C38.638 29.6671 38.2804 29.7837 37.8914 29.8502C37.604 30.3805 37.153 30.9508 36.5389 31.5601H36.3867V30.9642C36.7312 30.6062 37.0429 30.2215 37.3214 29.8104C36.9408 29.6423 36.7511 29.3925 36.7511 29.0616C36.7511 28.7208 36.8667 28.3575 37.0993 27.9703C37.3312 27.584 37.6504 27.3908 38.0573 27.3908C38.4021 27.3908 38.5742 27.567 38.5742 27.9208C38.5742 28.1993 38.4748 28.5969 38.2756 29.1142C39.0091 29.0344 39.6501 28.4736 40.1984 27.4303L40.8014 27.4036L40.1849 29.1007C39.9287 29.8168 39.7629 30.3045 39.688 30.5628C39.613 30.821 39.5751 31.0502 39.5751 31.2487C39.5751 31.4346 39.6184 31.5831 39.7042 31.6928C39.7904 31.8041 39.9068 31.8588 40.0525 31.8588C40.2114 31.8588 40.3642 31.8045 40.51 31.6968C40.6557 31.5876 40.9828 31.2885 41.4914 30.798V31.5603H41.4912Z" fill="#575757"/>
<path d="M47.999 31.5602C46.9781 32.6393 46.1025 33.1782 45.3736 33.1782C45.0774 33.1782 44.8388 33.0744 44.6575 32.8665C44.476 32.659 44.3854 32.3807 44.3854 32.0316C44.3854 31.5587 44.5802 30.8359 44.9693 29.864C45.1768 29.3423 45.281 29.0103 45.281 28.8695C45.281 28.7279 45.2253 28.6571 45.1154 28.6571C45.0536 28.6571 44.9713 28.6882 44.8699 28.7497C44.7766 28.8115 44.6684 28.8984 44.5447 29.0086C44.4344 29.11 44.3103 29.2338 44.1734 29.3792C44.0538 29.504 43.9256 29.6452 43.7893 29.8038L43.4176 30.2351C43.2543 30.4338 43.1526 30.6434 43.1129 30.8646C43.0463 31.2402 43.0023 31.5853 42.98 31.8995C42.9665 32.1332 42.9601 32.4489 42.9601 32.8475L41.4949 33.1916C41.4466 32.5949 41.4219 32.1506 41.4219 31.8593C41.4219 31.1478 41.5048 30.4736 41.6708 29.8373C41.8364 29.2004 42.1024 28.4849 42.4696 27.689L44.0869 27.3776C43.7468 28.2927 43.5237 29.0128 43.4176 29.5384C44.1424 28.7298 44.7171 28.17 45.143 27.8579C45.5683 27.5462 45.947 27.3911 46.278 27.3911C46.5028 27.3911 46.6908 27.4759 46.8405 27.6457C46.9909 27.8157 47.0657 28.0291 47.0657 28.2842C47.0657 28.7081 46.8756 29.4065 46.4961 30.3793C46.235 31.0463 46.1045 31.4792 46.1045 31.6792C46.1045 31.9452 46.2131 32.0781 46.4301 32.0781C46.7533 32.0781 47.2767 31.6515 47.999 30.7985V31.5602Z" fill="#575757"/>
</g>
<defs>
<clipPath id="clip0_301_670">
<rect width="48" height="25.8865" fill="white" transform="translate(0 11)"/>
</clipPath>
</defs>
</svg>
