<svg width="374" height="353" viewBox="0 0 374 353" fill="none" xmlns="http://www.w3.org/2000/svg">
<rect x="0.5" y="0.5" width="39" height="39" stroke="white" stroke-opacity="0.1"/>
<rect x="40.5" y="0.5" width="39" height="39" stroke="white" stroke-opacity="0.1"/>
<rect x="80.5" y="0.5" width="39" height="39" stroke="white" stroke-opacity="0.1"/>
<rect x="120.5" y="0.5" width="39" height="39" stroke="white" stroke-opacity="0.1"/>
<rect x="160.5" y="0.5" width="39" height="39" stroke="white" stroke-opacity="0.1"/>
<rect x="0.5" y="44.5" width="39" height="39" stroke="white" stroke-opacity="0.1"/>
<rect x="40.5" y="44.5" width="39" height="39" stroke="white" stroke-opacity="0.1"/>
<rect x="80.5" y="44.5" width="39" height="39" stroke="white" stroke-opacity="0.1"/>
<rect x="120.5" y="44.5" width="39" height="39" stroke="white" stroke-opacity="0.1"/>
<rect x="160.5" y="44.5" width="39" height="39" stroke="white" stroke-opacity="0.1"/>
<rect x="0.5" y="88.5" width="39" height="39" stroke="white" stroke-opacity="0.1"/>
<rect x="40.5" y="88.5" width="39" height="39" stroke="white" stroke-opacity="0.1"/>
<rect x="80.5" y="88.5" width="39" height="39" stroke="white" stroke-opacity="0.1"/>
<rect x="120.5" y="88.5" width="39" height="39" stroke="white" stroke-opacity="0.1"/>
<rect x="160.5" y="88.5" width="39" height="39" stroke="white" stroke-opacity="0.1"/>
<rect x="0.5" y="132.5" width="39" height="39" stroke="white" stroke-opacity="0.1"/>
<rect x="40.5" y="132.5" width="39" height="39" stroke="white" stroke-opacity="0.1"/>
<rect x="80.5" y="132.5" width="39" height="39" stroke="white" stroke-opacity="0.1"/>
<rect x="120.5" y="132.5" width="39" height="39" stroke="white" stroke-opacity="0.1"/>
<rect x="160.5" y="132.5" width="39" height="39" stroke="white" stroke-opacity="0.1"/>
<rect x="0.5" y="176.5" width="39" height="39" stroke="white" stroke-opacity="0.1"/>
<rect x="40.5" y="176.5" width="39" height="39" stroke="white" stroke-opacity="0.1"/>
<rect x="80.5" y="176.5" width="39" height="39" stroke="white" stroke-opacity="0.1"/>
<rect x="120.5" y="176.5" width="39" height="39" stroke="white" stroke-opacity="0.1"/>
<rect x="160.5" y="176.5" width="39" height="39" stroke="white" stroke-opacity="0.1"/>
<rect x="241.5" y="221.537" width="25.4071" height="25.3925" stroke="white" stroke-opacity="0.1"/>
<rect x="267.907" y="221.537" width="25.4071" height="25.3925" stroke="white" stroke-opacity="0.1"/>
<rect x="294.314" y="221.537" width="25.4071" height="25.3925" stroke="white" stroke-opacity="0.1"/>
<rect x="320.721" y="221.537" width="25.4071" height="25.3925" stroke="white" stroke-opacity="0.1"/>
<rect x="347.128" y="221.537" width="25.4071" height="25.3925" stroke="white" stroke-opacity="0.1"/>
<rect x="241.5" y="247.93" width="25.4071" height="25.3925" stroke="white" stroke-opacity="0.1"/>
<rect x="267.907" y="247.93" width="25.4071" height="25.3925" stroke="white" stroke-opacity="0.1"/>
<rect x="294.314" y="247.93" width="25.4071" height="25.3925" stroke="white" stroke-opacity="0.1"/>
<rect x="320.721" y="247.93" width="25.4071" height="25.3925" stroke="white" stroke-opacity="0.1"/>
<rect x="347.128" y="247.93" width="25.4071" height="25.3925" stroke="white" stroke-opacity="0.1"/>
<rect x="241.5" y="274.322" width="25.4071" height="25.3925" stroke="white" stroke-opacity="0.1"/>
<rect x="267.907" y="274.322" width="25.4071" height="25.3925" stroke="white" stroke-opacity="0.1"/>
<rect x="294.314" y="274.322" width="25.4071" height="25.3925" stroke="white" stroke-opacity="0.1"/>
<rect x="320.721" y="274.322" width="25.4071" height="25.3925" stroke="white" stroke-opacity="0.1"/>
<rect x="347.128" y="274.322" width="25.4071" height="25.3925" stroke="white" stroke-opacity="0.1"/>
<rect x="241.5" y="300.715" width="25.4071" height="25.3925" stroke="white" stroke-opacity="0.1"/>
<rect x="267.907" y="300.715" width="25.4071" height="25.3925" stroke="white" stroke-opacity="0.1"/>
<rect x="294.314" y="300.715" width="25.4071" height="25.3925" stroke="white" stroke-opacity="0.1"/>
<rect x="320.721" y="300.715" width="25.4071" height="25.3925" stroke="white" stroke-opacity="0.1"/>
<rect x="347.128" y="300.715" width="25.4071" height="25.3925" stroke="white" stroke-opacity="0.1"/>
<rect x="241.5" y="327.108" width="25.4071" height="25.3925" stroke="white" stroke-opacity="0.1"/>
<rect x="267.907" y="327.108" width="25.4071" height="25.3925" stroke="white" stroke-opacity="0.1"/>
<rect x="294.314" y="327.108" width="25.4071" height="25.3925" stroke="white" stroke-opacity="0.1"/>
<rect x="320.721" y="327.108" width="25.4071" height="25.3925" stroke="white" stroke-opacity="0.1"/>
<rect x="347.128" y="327.108" width="25.4071" height="25.3925" stroke="white" stroke-opacity="0.1"/>
<path d="M247.408 137.383C251.986 193.938 209.956 243.475 153.53 248.027C97.1036 252.58 47.6495 210.424 43.0702 153.869C38.4918 97.314 80.5216 47.7772 136.948 43.2244C193.374 38.6725 242.828 80.8289 247.408 137.383Z" fill="url(#paint0_radial_539_14312)"/>
<path d="M257.78 184.603C257.371 185.798 256.348 186.896 254.491 187.82C252.628 188.746 250.04 189.436 246.746 189.85C240.165 190.679 231.066 190.375 220.058 188.98C198.064 186.193 168.731 179.085 137.29 168.303C105.849 157.52 78.3245 145.13 59.2439 133.831C49.6941 128.176 42.3208 122.83 37.6295 118.136C35.2818 115.787 33.66 113.654 32.7561 111.778C31.8546 109.908 31.7197 108.413 32.1287 107.218C32.5377 106.023 33.5603 104.925 35.418 104.001C37.2809 103.075 39.8687 102.385 43.1624 101.971C49.7439 101.142 58.843 101.446 69.8509 102.841C91.8447 105.628 121.178 112.736 152.619 123.518C184.059 134.301 211.584 146.691 230.665 157.99C240.215 163.645 247.588 168.991 252.279 173.685C254.627 176.034 256.249 178.167 257.153 180.043C258.054 181.913 258.189 183.408 257.78 184.603Z" stroke="url(#paint1_linear_539_14312)" stroke-width="0.999783"/>
<defs>
<radialGradient id="paint0_radial_539_14312" cx="0" cy="0" r="1" gradientUnits="userSpaceOnUse" gradientTransform="translate(162.395 41.1706) rotate(117.303) scale(242.066 241.883)">
<stop stop-color="#75E0A6"/>
<stop offset="0.255208" stop-color="#8F9ED5" stop-opacity="0.53"/>
<stop offset="0.550999" stop-color="#8DA2D2" stop-opacity="0"/>
</radialGradient>
<linearGradient id="paint1_linear_539_14312" x1="148.008" y1="167.04" x2="159.858" y2="132.84" gradientUnits="userSpaceOnUse">
<stop stop-color="#F3FCFF"/>
<stop offset="0.47974" stop-color="#654BAE"/>
<stop offset="1" stop-color="#303261" stop-opacity="0"/>
</linearGradient>
</defs>
</svg>
