<svg width="121" height="120" viewBox="0 0 121 120" fill="none" xmlns="http://www.w3.org/2000/svg">
<path fill-rule="evenodd" clip-rule="evenodd" d="M46 4C46.8284 4 47.5 4.67157 47.5 5.5V16.4444H76.5V5.5C76.5 4.67157 77.1716 4 78 4C78.8284 4 79.5 4.67157 79.5 5.5V16.4444H100.055C102.265 16.4444 104.055 18.2353 104.055 20.4444V44H115C115.828 44 116.5 44.6716 116.5 45.5C116.5 46.3284 115.828 47 115 47H104.055V76H115C115.828 76 116.5 76.6716 116.5 77.5C116.5 78.3284 115.828 79 115 79H104.055V99.5556C104.055 101.765 102.265 103.556 100.055 103.556H79.5V114.5C79.5 115.328 78.8284 116 78 116C77.1716 116 76.5 115.328 76.5 114.5V103.556H47.5V114.5C47.5 115.328 46.8284 116 46 116C45.1716 116 44.5 115.328 44.5 114.5V103.556H20.9443C18.7352 103.556 16.9443 101.765 16.9443 99.5556V79H6C5.17157 79 4.5 78.3284 4.5 77.5C4.5 76.6716 5.17157 76 6 76H16.9443V47H6C5.17157 47 4.5 46.3284 4.5 45.5C4.5 44.6716 5.17157 44 6 44H16.9443V20.4444C16.9443 18.2353 18.7352 16.4444 20.9443 16.4444H44.5V5.5C44.5 4.67157 45.1716 4 46 4ZM100.055 19.4444H20.9443C20.3921 19.4444 19.9443 19.8922 19.9443 20.4444V99.5556C19.9443 100.108 20.3921 100.556 20.9443 100.556H100.055C100.608 100.556 101.055 100.108 101.055 99.5556V20.4444C101.055 19.8922 100.608 19.4444 100.055 19.4444Z" fill="url(#paint0_linear_560_4821)"/>
<path d="M77.9865 42V78.3636H72.5V42H77.9865Z" fill="#71EA9F"/>
<path d="M42.3239 78.3636H36.5L49.5859 42H55.9247L69.0107 78.3636H63.1868L52.9062 48.6051H52.6222L42.3239 78.3636ZM43.3004 64.1236H62.1925V68.7401H43.3004V64.1236Z" fill="#71EA9F"/>
<defs>
<linearGradient id="paint0_linear_560_4821" x1="4.5" y1="116" x2="116.5" y2="116" gradientUnits="userSpaceOnUse">
<stop stop-color="#71EA9F"/>
<stop offset="1" stop-color="#A16FF6"/>
</linearGradient>
</defs>
</svg>
