<svg width="48" height="48" viewBox="0 0 48 48" fill="none" xmlns="http://www.w3.org/2000/svg">
<path d="M23.9512 43.5073C34.7348 43.5073 43.4766 34.6633 43.4766 23.7536C43.4766 12.844 34.7348 4 23.9512 4C13.1676 4 4.42578 12.844 4.42578 23.7536C4.42578 34.6633 13.1676 43.5073 23.9512 43.5073Z" fill="black"/>
<path d="M17.8121 41.2697C18.6109 41.5424 21.2933 42.4146 21.4074 41.5617C21.4693 41.0937 20.0536 40.6141 18.137 39.5988C15.4112 38.1581 12.9175 36.3157 10.7396 34.1333C7.56068 31.0163 5.73278 26.7758 5.64935 22.3245C5.4869 16.3485 7.82314 11.5174 11.666 8.39984C6.96666 12.0269 4.15312 17.5794 4.0074 23.5139C3.8933 27.8363 5.10203 31.478 7.37252 34.7928C8.07756 35.7034 8.90171 36.5152 9.82287 37.2064C11.9986 38.8522 15.18 40.3743 17.8121 41.2678" fill="white"/>
<path d="M43.745 19.2261C42.5344 13.5325 38.7708 9.54659 33.7367 6.73072C37.595 9.47117 43.0101 15.2982 39.8094 20.4388C37.1018 24.5562 30.5263 23.7497 26.9194 21.7925C22.6415 19.4718 17.2882 14.25 22.568 9.14626C25.9911 5.84303 36.8794 9.54659 34.9628 14.484C33.845 17.356 29.4935 16.7178 27.5364 15.3137C26.0936 14.2771 24.8791 12.4959 25.5231 10.6567C25.7281 10.0668 25.6991 9.15206 24.8655 9.82509C24.2505 10.3279 23.9314 11.1557 23.8231 11.9293C22.9122 18.3675 34.3826 23.3591 37.7864 17.1297C39.5522 13.8961 36.6899 9.20041 33.0869 7.27804C30.3793 5.82756 27.5615 4.80835 24.1074 5.0559C18.584 5.4427 13.9502 8.90452 13.368 14.5479C12.7879 20.1564 16.5378 25.2041 20.9531 28.223C25.5947 31.3947 31.8337 33.4854 37.5428 31.5939C42.6601 29.8978 44.7739 24.0243 43.745 19.23" fill="white"/>
<path d="M36.5431 14.8651C37.0924 11.1751 33.7563 8.64157 30.6754 7.49086C27.0434 6.13707 22.2452 6.72887 19.5995 9.7362C17.6656 11.9448 17.7913 15.1513 18.7892 17.7467C20.2977 21.6669 23.7034 24.5002 27.6681 25.7244C30.4859 26.5947 33.8916 26.9737 36.7462 26.0551C40.91 24.7149 42.2658 20.3731 41.4051 16.3949C41.2209 15.5349 40.9379 14.699 40.5619 13.9039C40.0359 12.7996 38.4249 10.5639 40.6451 13.287C40.8778 13.5905 41.0922 13.9075 41.2872 14.2366C41.7452 14.9889 42.1083 15.7951 42.3683 16.6366C43.5789 20.3499 42.6293 24.682 39.2739 26.9235C36.6998 28.6389 33.4275 28.8439 30.4414 28.4146C26.4381 27.8344 22.6649 25.9004 20.0424 22.7886C17.6482 19.9515 16.014 15.8766 16.9983 12.1517C17.7197 9.42677 19.9322 7.39222 22.5817 6.54321C25.9333 5.45825 29.6233 5.96301 32.6384 7.72487C34.1508 8.60483 35.5394 9.82323 36.313 11.4207C36.6629 12.1403 36.851 12.9278 36.8642 13.7279C36.8718 14.052 36.8466 14.376 36.7887 14.6949C36.7675 14.811 36.5218 15.1378 36.5567 14.869" fill="#575757"/>
</svg>
