<svg width="24" height="32" viewBox="0 0 24 32" fill="none" xmlns="http://www.w3.org/2000/svg">
<path d="M7.63315 24.7373C7.63315 24.7373 6.41249 25.4472 8.50186 25.6874C11.0331 25.9761 12.3267 25.9347 15.1162 25.4068C15.1162 25.4068 15.8495 25.8666 16.8737 26.2649C10.6206 28.9449 2.72165 26.1097 7.63315 24.7373Z" fill="white"/>
<path d="M6.87153 21.24C6.87153 21.24 5.50244 22.2534 7.59336 22.4697C10.2973 22.7486 12.4326 22.7715 16.1276 22.06C16.1276 22.06 16.6387 22.5781 17.4423 22.8614C9.88187 25.0722 1.46094 23.0358 6.87153 21.24Z" fill="white"/>
<path d="M13.3117 15.3077C14.8524 17.0816 12.9068 18.6779 12.9068 18.6779C12.9068 18.6779 16.8191 16.6583 15.0224 14.1292C13.3443 11.7707 12.0574 10.5989 19.024 6.55847C19.024 6.55847 8.08874 9.2896 13.3117 15.3077Z" fill="white"/>
<path d="M21.5819 27.324C21.5819 27.324 22.4852 28.0683 20.587 28.6441C16.9776 29.7375 5.56438 30.0677 2.39382 28.6877C1.25409 28.1918 3.39141 27.5038 4.06373 27.3594C4.76489 27.2073 5.16558 27.2357 5.16558 27.2357C3.89808 26.3428 -3.02702 28.9889 1.64797 29.7467C14.3974 31.8143 24.8889 28.8157 21.5819 27.324Z" fill="white"/>
<path d="M8.22225 17.6166C8.22225 17.6166 2.41674 18.9956 6.16638 19.4963C7.74959 19.7083 10.9057 19.6603 13.8455 19.414C16.2481 19.2113 18.6606 18.7804 18.6606 18.7804C18.6606 18.7804 17.8134 19.1432 17.2005 19.5617C11.3051 21.1122 -0.0837352 20.3909 3.19496 18.8049C5.96775 17.4646 8.22225 17.6166 8.22225 17.6166Z" fill="white"/>
<path d="M18.6361 23.4377C24.629 20.3236 21.8581 17.3309 19.9241 17.7341C19.45 17.8327 19.2387 17.9182 19.2387 17.9182C19.2387 17.9182 19.4146 17.6425 19.7508 17.5232C23.5769 16.1781 26.5195 21.4906 18.5156 23.5947C18.5156 23.5947 18.6083 23.5119 18.6361 23.4377Z" fill="white"/>
<path d="M15.0206 0.0343018C15.0206 0.0343018 18.3395 3.35441 11.8726 8.45979C6.68684 12.5552 10.6901 14.8903 11.8705 17.5582C8.84345 14.8271 6.62201 12.4229 8.11233 10.1852C10.2998 6.9006 16.3597 5.30809 15.0206 0.0343018Z" fill="white"/>
<path d="M8.80894 31.8765C14.5614 32.2448 23.395 31.6722 23.6042 28.9503C23.6042 28.9503 23.2021 29.9822 18.8501 30.8016C13.9402 31.7256 7.88462 31.6177 4.29297 31.0256C4.29297 31.0256 5.02823 31.6341 8.80894 31.8765Z" fill="white"/>
</svg>
